<?xml version="1.0" encoding="utf-8" ?>
<svg baseProfile="full" height="100%" version="1.1" width="100%" xmlns="http://www.w3.org/2000/svg" xmlns:ev="http://www.w3.org/2001/xml-events" xmlns:xlink="http://www.w3.org/1999/xlink"><defs /><defs id="gradients"><linearGradient id="gradient_0" x1="0" x2="1" y1="0" y2="0"><stop offset="0.0" stop-color="#7E8397" /><stop offset="1.0" stop-color="#CBD3D2" /></linearGradient><linearGradient id="gradient_1" x1="0" x2="0" y1="0" y2="1"><stop offset="0.0" stop-color="#DDDDDD" /><stop offset="1.0" stop-color="#FFFFFF" /></linearGradient><linearGradient id="gradient_2" x1="0" x2="1" y1="0" y2="1"><stop offset="0.0" stop-color="#C1C7BC" /><stop offset="1.0" stop-color="#C8CBDE" /></linearGradient><linearGradient id="gradient_3" x1="0" x2="1" y1="0" y2="0"><stop offset="0.0" stop-color="#5E6377" /><stop offset="1.0" stop-color="#CBD3D2" /></linearGradient><linearGradient id="gradient_4" x1="0" x2="0" y1="0" y2="1"><stop offset="0.0" stop-color="#C1C7BC" /><stop offset="1.0" stop-color="#5E6377" /></linearGradient><linearGradient id="gradient_5" x1="0" x2="1" y1="0" y2="1"><stop offset="0.0" stop-color="#5E6377" /><stop offset="1.0" stop-color="#7E8397" /></linearGradient><linearGradient id="gradient_6" x1="0" x2="0" y1="0" y2="1"><stop offset="0.0" stop-color="#7E8397" /><stop offset="1.0" stop-color="#C8CBDE" /></linearGradient><linearGradient id="gradient_7" x1="0" x2="0" y1="0" y2="1"><stop offset="0.0" stop-color="#CBD3D2" /><stop offset="1.0" stop-color="#DBE3E2" /></linearGradient><linearGradient id="gradient_8" x1="0" x2="0" y1="0" y2="1"><stop offset="0.0" stop-color="#C0C0C0" /><stop offset="1.0" stop-color="#C9CDE0" /></linearGradient><linearGradient id="gradient_9" x1="0" x2="1" y1="0" y2="0"><stop offset="0.0" stop-color="#C1C7BC" /><stop offset="1.0" stop-color="#DBE3E2" /></linearGradient></defs><polygon fill="#DDDDDD" points="0,0 40,43 0,46" /><polygon fill="#D1D7CC" points="0,46 19,90 0,92" /><polygon fill="#7E8397" points="0,92 24,130 0,138" /><polygon fill="#FFFFFF" points="0,138 21,141 0,184" /><polygon fill="#DBE3E2" points="0,184 19,197 0,230" /><polygon fill="url(#gradient_7)" points="0,230 40,232 0,276" /><polygon fill="#5E6377" points="0,276 39,320 0,323" /><polygon fill="url(#gradient_5)" points="0,323 35,340 0,369" /><polygon fill="url(#gradient_2)" points="0,369 36,376 0,415" /><polygon fill="#DDDDDD" points="0,415 37,437 0,461" /><polygon fill="#FFFFFF" points="0,461 22,506 0,507" /><polygon fill="url(#gradient_1)" points="0,507 26,520 0,553" /><polygon fill="#FFFFFF" points="0,553 35,580 0,600" /><polygon fill="#FFFFFF" points="40,43 0,46 19,90" /><polygon fill="#DBE3E2" points="19,90 0,92 24,130" /><polygon fill="#DBE3E2" points="24,130 0,138 21,141" /><polygon fill="#C8CBDE" points="21,141 0,184 19,197" /><polygon fill="#C9CDE0" points="19,197 0,230 40,232" /><polygon fill="#CBD3D2" points="40,232 0,276 39,320" /><polygon fill="#C1C7BC" points="39,320 0,323 35,340" /><polygon fill="url(#gradient_3)" points="35,340 0,369 36,376" /><polygon fill="url(#gradient_7)" points="36,376 0,415 37,437" /><polygon fill="#DBE3E2" points="37,437 0,461 22,506" /><polygon fill="#C1C7BC" points="22,506 0,507 26,520" /><polygon fill="url(#gradient_2)" points="26,520 0,553 35,580" /><polygon fill="#D1D7CC" points="74,0 40,43 68,67" /><polygon fill="url(#gradient_2)" points="68,67 19,90 76,101" /><polygon fill="url(#gradient_1)" points="76,101 24,130 73,134" /><polygon fill="url(#gradient_7)" points="73,134 21,141 75,142" /><polygon fill="#FFFFFF" points="75,142 19,197 67,229" /><polygon fill="url(#gradient_9)" points="67,229 40,232 67,259" /><polygon fill="#C8CBDE" points="67,259 39,320 82,332" /><polygon fill="#D1D7CC" points="82,332 35,340 61,344" /><polygon fill="url(#gradient_7)" points="61,344 36,376 72,435" /><polygon fill="url(#gradient_0)" points="72,435 37,437 61,460" /><polygon fill="#DDDDDD" points="61,460 22,506 71,518" /><polygon fill="#5E6377" points="71,518 26,520 73,541" /><polygon fill="url(#gradient_5)" points="73,541 35,580 83,600" /><polygon fill="url(#gradient_4)" points="40,43 68,67 19,90" /><polygon fill="#CBD3D2" points="19,90 76,101 24,130" /><polygon fill="#D1D7CC" points="24,130 73,134 21,141" /><polygon fill="url(#gradient_4)" points="21,141 75,142 19,197" /><polygon fill="url(#gradient_9)" points="19,197 67,229 40,232" /><polygon fill="#C1C7BC" points="40,232 67,259 39,320" /><polygon fill="#CBD3D2" points="39,320 82,332 35,340" /><polygon fill="url(#gradient_7)" points="35,340 61,344 36,376" /><polygon fill="url(#gradient_9)" points="36,376 72,435 37,437" /><polygon fill="url(#gradient_5)" points="37,437 61,460 22,506" /><polygon fill="#FFFFFF" points="22,506 71,518 26,520" /><polygon fill="#7E8397" points="26,520 73,541 35,580" /><polygon fill="url(#gradient_4)" points="0,0 74,0 40,43" /><polygon fill="url(#gradient_7)" points="0,600 83,600 35,580" /><polygon fill="#C9CDE0" points="74,0 107,8 68,67" /><polygon fill="url(#gradient_2)" points="68,67 103,79 76,101" /><polygon fill="#CBD3D2" points="76,101 124,132 73,134" /><polygon fill="url(#gradient_5)" points="73,134 115,135 75,142" /><polygon fill="#CBD3D2" points="75,142 126,203 67,229" /><polygon fill="#CBD3D2" points="67,229 112,229 67,259" /><polygon fill="#7E8397" points="67,259 117,328 82,332" /><polygon fill="url(#gradient_6)" points="82,332 103,341 61,344" /><polygon fill="#D1D7CC" points="61,344 125,398 72,435" /><polygon fill="url(#gradient_7)" points="72,435 100,435 61,460" /><polygon fill="#FFFFFF" points="61,460 125,485 71,518" /><polygon fill="#C0C0C0" points="71,518 102,527 73,541" /><polygon fill="url(#gradient_9)" points="73,541 101,547 83,600" /><polygon fill="#DBE3E2" points="107,8 68,67 103,79" /><polygon fill="#D1D7CC" points="103,79 76,101 124,132" /><polygon fill="url(#gradient_5)" points="124,132 73,134 115,135" /><polygon fill="#FFFFFF" points="115,135 75,142 126,203" /><polygon fill="url(#gradient_6)" points="126,203 67,229 112,229" /><polygon fill="url(#gradient_0)" points="112,229 67,259 117,328" /><polygon fill="url(#gradient_1)" points="117,328 82,332 103,341" /><polygon fill="url(#gradient_4)" points="103,341 61,344 125,398" /><polygon fill="url(#gradient_6)" points="125,398 72,435 100,435" /><polygon fill="#7E8397" points="100,435 61,460 125,485" /><polygon fill="url(#gradient_8)" points="125,485 71,518 102,527" /><polygon fill="url(#gradient_9)" points="102,527 73,541 101,547" /><polygon fill="url(#gradient_6)" points="158,0 107,8 148,60" /><polygon fill="url(#gradient_2)" points="148,60 103,79 166,113" /><polygon fill="#FFFFFF" points="166,113 124,132 152,132" /><polygon fill="#C9CDE0" points="152,132 115,135 168,142" /><polygon fill="#FFFFFF" points="168,142 126,203 159,207" /><polygon fill="#DDDDDD" points="159,207 112,229 154,285" /><polygon fill="url(#gradient_3)" points="154,285 117,328 168,336" /><polygon fill="url(#gradient_5)" points="168,336 103,341 146,349" /><polygon fill="url(#gradient_6)" points="146,349 125,398 154,406" /><polygon fill="#C0C0C0" points="154,406 100,435 169,463" /><polygon fill="url(#gradient_9)" points="169,463 125,485 159,518" /><polygon fill="#CBD3D2" points="159,518 102,527 160,546" /><polygon fill="#C9CDE0" points="160,546 101,547 149,600" /><polygon fill="#CBD3D2" points="107,8 148,60 103,79" /><polygon fill="#CBD3D2" points="103,79 166,113 124,132" /><polygon fill="url(#gradient_8)" points="124,132 152,132 115,135" /><polygon fill="url(#gradient_2)" points="115,135 168,142 126,203" /><polygon fill="#C9CDE0" points="126,203 159,207 112,229" /><polygon fill="url(#gradient_4)" points="112,229 154,285 117,328" /><polygon fill="#7E8397" points="117,328 168,336 103,341" /><polygon fill="#DDDDDD" points="103,341 146,349 125,398" /><polygon fill="#C1C7BC" points="125,398 154,406 100,435" /><polygon fill="#C0C0C0" points="100,435 169,463 125,485" /><polygon fill="#C0C0C0" points="125,485 159,518 102,527" /><polygon fill="#FFFFFF" points="102,527 160,546 101,547" /><polygon fill="url(#gradient_5)" points="74,0 158,0 107,8" /><polygon fill="#C8CBDE" points="83,600 149,600 101,547" /><polygon fill="url(#gradient_6)" points="158,0 194,3 148,60" /><polygon fill="url(#gradient_4)" points="148,60 206,107 166,113" /><polygon fill="url(#gradient_5)" points="166,113 192,120 152,132" /><polygon fill="url(#gradient_6)" points="152,132 195,135 168,142" /><polygon fill="#CBD3D2" points="168,142 207,171 159,207" /><polygon fill="#5E6377" points="159,207 190,240 154,285" /><polygon fill="url(#gradient_3)" points="154,285 195,307 168,336" /><polygon fill="url(#gradient_0)" points="168,336 204,338 146,349" /><polygon fill="url(#gradient_0)" points="146,349 201,365 154,406" /><polygon fill="#CBD3D2" points="154,406 203,411 169,463" /><polygon fill="url(#gradient_2)" points="169,463 188,463 159,518" /><polygon fill="url(#gradient_4)" points="159,518 209,544 160,546" /><polygon fill="url(#gradient_1)" points="160,546 209,546 149,600" /><polygon fill="url(#gradient_8)" points="194,3 148,60 206,107" /><polygon fill="#5E6377" points="206,107 166,113 192,120" /><polygon fill="#D1D7CC" points="192,120 152,132 195,135" /><polygon fill="#C9CDE0" points="195,135 168,142 207,171" /><polygon fill="url(#gradient_1)" points="207,171 159,207 190,240" /><polygon fill="#DDDDDD" points="190,240 154,285 195,307" /><polygon fill="#CBD3D2" points="195,307 168,336 204,338" /><polygon fill="#D1D7CC" points="204,338 146,349 201,365" /><polygon fill="#CBD3D2" points="201,365 154,406 203,411" /><polygon fill="url(#gradient_3)" points="203,411 169,463 188,463" /><polygon fill="#DDDDDD" points="188,463 159,518 209,544" /><polygon fill="#C0C0C0" points="209,544 160,546 209,546" /><polygon fill="url(#gradient_9)" points="240,0 194,3 251,69" /><polygon fill="url(#gradient_6)" points="251,69 206,107 238,119" /><polygon fill="#D1D7CC" points="238,119 192,120 235,127" /><polygon fill="#C0C0C0" points="235,127 195,135 247,148" /><polygon fill="url(#gradient_5)" points="247,148 207,171 234,197" /><polygon fill="#C8CBDE" points="234,197 190,240 245,246" /><polygon fill="#CBD3D2" points="245,246 195,307 230,312" /><polygon fill="#C9CDE0" points="230,312 204,338 251,344" /><polygon fill="#C0C0C0" points="251,344 201,365 231,406" /><polygon fill="url(#gradient_7)" points="231,406 203,411 237,433" /><polygon fill="#DBE3E2" points="237,433 188,463 249,507" /><polygon fill="url(#gradient_1)" points="249,507 209,544 230,545" /><polygon fill="url(#gradient_4)" points="230,545 209,546 246,600" /><polygon fill="#C9CDE0" points="194,3 251,69 206,107" /><polygon fill="url(#gradient_1)" points="206,107 238,119 192,120" /><polygon fill="#CBD3D2" points="192,120 235,127 195,135" /><polygon fill="#FFFFFF" points="195,135 247,148 207,171" /><polygon fill="#DDDDDD" points="207,171 234,197 190,240" /><polygon fill="#5E6377" points="190,240 245,246 195,307" /><polygon fill="url(#gradient_3)" points="195,307 230,312 204,338" /><polygon fill="#DBE3E2" points="204,338 251,344 201,365" /><polygon fill="url(#gradient_3)" points="201,365 231,406 203,411" /><polygon fill="url(#gradient_0)" points="203,411 237,433 188,463" /><polygon fill="#C0C0C0" points="188,463 249,507 209,544" /><polygon fill="#DDDDDD" points="209,544 230,545 209,546" /><polygon fill="url(#gradient_6)" points="158,0 240,0 194,3" /><polygon fill="url(#gradient_7)" points="149,600 246,600 209,546" /><polygon fill="url(#gradient_7)" points="240,0 292,68 251,69" /><polygon fill="url(#gradient_1)" points="251,69 286,115 238,119" /><polygon fill="url(#gradient_7)" points="238,119 284,125 235,127" /><polygon fill="url(#gradient_1)" points="235,127 291,139 247,148" /><polygon fill="url(#gradient_9)" points="247,148 292,177 234,197" /><polygon fill="url(#gradient_2)" points="234,197 282,235 245,246" /><polygon fill="url(#gradient_5)" points="245,246 282,295 230,312" /><polygon fill="#C1C7BC" points="230,312 271,325 251,344" /><polygon fill="#D1D7CC" points="251,344 288,347 231,406" /><polygon fill="url(#gradient_6)" points="231,406 287,411 237,433" /><polygon fill="#5E6377" points="237,433 279,438 249,507" /><polygon fill="#7E8397" points="249,507 268,507 230,545" /><polygon fill="url(#gradient_2)" points="230,545 288,562 246,600" /><polygon fill="url(#gradient_1)" points="292,68 251,69 286,115" /><polygon fill="url(#gradient_6)" points="286,115 238,119 284,125" /><polygon fill="#C1C7BC" points="284,125 235,127 291,139" /><polygon fill="url(#gradient_2)" points="291,139 247,148 292,177" /><polygon fill="#5E6377" points="292,177 234,197 282,235" /><polygon fill="#C0C0C0" points="282,235 245,246 282,295" /><polygon fill="url(#gradient_0)" points="282,295 230,312 271,325" /><polygon fill="url(#gradient_8)" points="271,325 251,344 288,347" /><polygon fill="#C0C0C0" points="288,347 231,406 287,411" /><polygon fill="url(#gradient_1)" points="287,411 237,433 279,438" /><polygon fill="#C9CDE0" points="279,438 249,507 268,507" /><polygon fill="#7E8397" points="268,507 230,545 288,562" /><polygon fill="url(#gradient_0)" points="327,0 292,68 315,68" /><polygon fill="url(#gradient_7)" points="315,68 286,115 330,124" /><polygon fill="#D1D7CC" points="330,124 284,125 330,129" /><polygon fill="#7E8397" points="330,129 291,139 333,142" /><polygon fill="#C1C7BC" points="333,142 292,177 313,197" /><polygon fill="url(#gradient_7)" points="313,197 282,235 319,247" /><polygon fill="#DBE3E2" points="319,247 282,295 316,308" /><polygon fill="#C1C7BC" points="316,308 271,325 331,328" /><polygon fill="#C8CBDE" points="331,328 288,347 317,401" /><polygon fill="url(#gradient_1)" points="317,401 287,411 323,412" /><polygon fill="url(#gradient_8)" points="323,412 279,438 332,470" /><polygon fill="#5E6377" points="332,470 268,507 328,523" /><polygon fill="url(#gradient_4)" points="328,523 288,562 328,600" /><polygon fill="#7E8397" points="292,68 315,68 286,115" /><polygon fill="url(#gradient_6)" points="286,115 330,124 284,125" /><polygon fill="#DDDDDD" points="284,125 330,129 291,139" /><polygon fill="#DDDDDD" points="291,139 333,142 292,177" /><polygon fill="#CBD3D2" points="292,177 313,197 282,235" /><polygon fill="url(#gradient_4)" points="282,235 319,247 282,295" /><polygon fill="url(#gradient_2)" points="282,295 316,308 271,325" /><polygon fill="url(#gradient_5)" points="271,325 331,328 288,347" /><polygon fill="#7E8397" points="288,347 317,401 287,411" /><polygon fill="url(#gradient_2)" points="287,411 323,412 279,438" /><polygon fill="#CBD3D2" points="279,438 332,470 268,507" /><polygon fill="url(#gradient_5)" points="268,507 328,523 288,562" /><polygon fill="url(#gradient_1)" points="240,0 327,0 292,68" /><polygon fill="url(#gradient_6)" points="246,600 328,600 288,562" /><polygon fill="#D1D7CC" points="327,0 376,7 315,68" /><polygon fill="url(#gradient_4)" points="315,68 373,95 330,124" /><polygon fill="url(#gradient_9)" points="330,124 369,128 330,129" /><polygon fill="#DDDDDD" points="330,129 357,140 333,142" /><polygon fill="#FFFFFF" points="333,142 368,159 313,197" /><polygon fill="url(#gradient_8)" points="313,197 353,211 319,247" /><polygon fill="url(#gradient_4)" points="319,247 364,305 316,308" /><polygon fill="#C9CDE0" points="316,308 353,326 331,328" /><polygon fill="url(#gradient_0)" points="331,328 351,332 317,401" /><polygon fill="url(#gradient_6)" points="317,401 373,403 323,412" /><polygon fill="#DDDDDD" points="323,412 356,423 332,470" /><polygon fill="url(#gradient_5)" points="332,470 353,486 328,523" /><polygon fill="url(#gradient_5)" points="328,523 369,549 328,600" /><polygon fill="#CBD3D2" points="376,7 315,68 373,95" /><polygon fill="url(#gradient_6)" points="373,95 330,124 369,128" /><polygon fill="#7E8397" points="369,128 330,129 357,140" /><polygon fill="#FFFFFF" points="357,140 333,142 368,159" /><polygon fill="url(#gradient_9)" points="368,159 313,197 353,211" /><polygon fill="url(#gradient_7)" points="353,211 319,247 364,305" /><polygon fill="url(#gradient_3)" points="364,305 316,308 353,326" /><polygon fill="#DDDDDD" points="353,326 331,328 351,332" /><polygon fill="#DBE3E2" points="351,332 317,401 373,403" /><polygon fill="#C9CDE0" points="373,403 323,412 356,423" /><polygon fill="#C0C0C0" points="356,423 332,470 353,486" /><polygon fill="#C9CDE0" points="353,486 328,523 369,549" /><polygon fill="url(#gradient_6)" points="394,0 376,7 413,68" /><polygon fill="url(#gradient_9)" points="413,68 373,95 412,98" /><polygon fill="#D1D7CC" points="412,98 369,128 403,129" /><polygon fill="#C0C0C0" points="403,129 357,140 406,152" /><polygon fill="#7E8397" points="406,152 368,159 399,160" /><polygon fill="#C8CBDE" points="399,160 353,211 401,242" /><polygon fill="#C1C7BC" points="401,242 364,305 412,323" /><polygon fill="#C0C0C0" points="412,323 353,326 414,326" /><polygon fill="url(#gradient_3)" points="414,326 351,332 397,367" /><polygon fill="url(#gradient_8)" points="397,367 373,403 403,418" /><polygon fill="url(#gradient_9)" points="403,418 356,423 417,455" /><polygon fill="#C8CBDE" points="417,455 353,486 398,522" /><polygon fill="#FFFFFF" points="398,522 369,549 402,600" /><polygon fill="url(#gradient_5)" points="376,7 413,68 373,95" /><polygon fill="url(#gradient_7)" points="373,95 412,98 369,128" /><polygon fill="url(#gradient_0)" points="369,128 403,129 357,140" /><polygon fill="#C8CBDE" points="357,140 406,152 368,159" /><polygon fill="url(#gradient_4)" points="368,159 399,160 353,211" /><polygon fill="url(#gradient_2)" points="353,211 401,242 364,305" /><polygon fill="#C0C0C0" points="364,305 412,323 353,326" /><polygon fill="#FFFFFF" points="353,326 414,326 351,332" /><polygon fill="url(#gradient_0)" points="351,332 397,367 373,403" /><polygon fill="url(#gradient_2)" points="373,403 403,418 356,423" /><polygon fill="url(#gradient_5)" points="356,423 417,455 353,486" /><polygon fill="#FFFFFF" points="353,486 398,522 369,549" /><polygon fill="url(#gradient_4)" points="327,0 394,0 376,7" /><polygon fill="url(#gradient_2)" points="328,600 402,600 369,549" /><polygon fill="#7E8397" points="394,0 456,42 413,68" /><polygon fill="url(#gradient_3)" points="413,68 459,83 412,98" /><polygon fill="#D1D7CC" points="412,98 456,125 403,129" /><polygon fill="url(#gradient_8)" points="403,129 457,138 406,152" /><polygon fill="url(#gradient_9)" points="406,152 447,156 399,160" /><polygon fill="url(#gradient_4)" points="399,160 459,174 401,242" /><polygon fill="url(#gradient_4)" points="401,242 438,270 412,323" /><polygon fill="url(#gradient_0)" points="412,323 442,323 414,326" /><polygon fill="url(#gradient_0)" points="414,326 453,362 397,367" /><polygon fill="#D1D7CC" points="397,367 447,381 403,418" /><polygon fill="#CBD3D2" points="403,418 444,448 417,455" /><polygon fill="url(#gradient_0)" points="417,455 457,481 398,522" /><polygon fill="#DBE3E2" points="398,522 449,538 402,600" /><polygon fill="url(#gradient_5)" points="456,42 413,68 459,83" /><polygon fill="#C8CBDE" points="459,83 412,98 456,125" /><polygon fill="#D1D7CC" points="456,125 403,129 457,138" /><polygon fill="#D1D7CC" points="457,138 406,152 447,156" /><polygon fill="url(#gradient_9)" points="447,156 399,160 459,174" /><polygon fill="url(#gradient_6)" points="459,174 401,242 438,270" /><polygon fill="url(#gradient_1)" points="438,270 412,323 442,323" /><polygon fill="#DBE3E2" points="442,323 414,326 453,362" /><polygon fill="#C1C7BC" points="453,362 397,367 447,381" /><polygon fill="url(#gradient_5)" points="447,381 403,418 444,448" /><polygon fill="#7E8397" points="444,448 417,455 457,481" /><polygon fill="#DBE3E2" points="457,481 398,522 449,538" /><polygon fill="url(#gradient_0)" points="484,0 456,42 491,73" /><polygon fill="#7E8397" points="491,73 459,83 479,110" /><polygon fill="#C1C7BC" points="479,110 456,125 491,131" /><polygon fill="url(#gradient_4)" points="491,131 457,138 476,144" /><polygon fill="url(#gradient_5)" points="476,144 447,156 487,173" /><polygon fill="#C0C0C0" points="487,173 459,174 484,257" /><polygon fill="url(#gradient_2)" points="484,257 438,270 496,318" /><polygon fill="#DDDDDD" points="496,318 442,323 500,332" /><polygon fill="url(#gradient_9)" points="500,332 453,362 482,380" /><polygon fill="#DBE3E2" points="482,380 447,381 493,387" /><polygon fill="url(#gradient_5)" points="493,387 444,448 496,476" /><polygon fill="url(#gradient_5)" points="496,476 457,481 484,484" /><polygon fill="url(#gradient_2)" points="484,484 449,538 498,600" /><polygon fill="url(#gradient_5)" points="456,42 491,73 459,83" /><polygon fill="url(#gradient_4)" points="459,83 479,110 456,125" /><polygon fill="url(#gradient_3)" points="456,125 491,131 457,138" /><polygon fill="url(#gradient_0)" points="457,138 476,144 447,156" /><polygon fill="url(#gradient_5)" points="447,156 487,173 459,174" /><polygon fill="url(#gradient_6)" points="459,174 484,257 438,270" /><polygon fill="url(#gradient_5)" points="438,270 496,318 442,323" /><polygon fill="#DDDDDD" points="442,323 500,332 453,362" /><polygon fill="url(#gradient_9)" points="453,362 482,380 447,381" /><polygon fill="#CBD3D2" points="447,381 493,387 444,448" /><polygon fill="#DBE3E2" points="444,448 496,476 457,481" /><polygon fill="#5E6377" points="457,481 484,484 449,538" /><polygon fill="#DDDDDD" points="394,0 484,0 456,42" /><polygon fill="url(#gradient_0)" points="402,600 498,600 449,538" /><polygon fill="#DBE3E2" points="484,0 521,68 491,73" /><polygon fill="#C0C0C0" points="491,73 521,83 479,110" /><polygon fill="#C0C0C0" points="479,110 532,127 491,131" /><polygon fill="url(#gradient_4)" points="491,131 532,138 476,144" /><polygon fill="url(#gradient_6)" points="476,144 528,162 487,173" /><polygon fill="url(#gradient_6)" points="487,173 517,181 484,257" /><polygon fill="#DBE3E2" points="484,257 534,288 496,318" /><polygon fill="url(#gradient_6)" points="496,318 523,320 500,332" /><polygon fill="#D1D7CC" points="500,332 517,357 482,380" /><polygon fill="#FFFFFF" points="482,380 519,381 493,387" /><polygon fill="url(#gradient_1)" points="493,387 517,387 496,476" /><polygon fill="url(#gradient_8)" points="496,476 536,478 484,484" /><polygon fill="#DBE3E2" points="484,484 532,545 498,600" /><polygon fill="#C9CDE0" points="521,68 491,73 521,83" /><polygon fill="#C9CDE0" points="521,83 479,110 532,127" /><polygon fill="#C9CDE0" points="532,127 491,131 532,138" /><polygon fill="#C9CDE0" points="532,138 476,144 528,162" /><polygon fill="#D1D7CC" points="528,162 487,173 517,181" /><polygon fill="url(#gradient_4)" points="517,181 484,257 534,288" /><polygon fill="#DBE3E2" points="534,288 496,318 523,320" /><polygon fill="url(#gradient_1)" points="523,320 500,332 517,357" /><polygon fill="#CBD3D2" points="517,357 482,380 519,381" /><polygon fill="url(#gradient_2)" points="519,381 493,387 517,387" /><polygon fill="#DBE3E2" points="517,387 496,476 536,478" /><polygon fill="#5E6377" points="536,478 484,484 532,545" /><polygon fill="url(#gradient_3)" points="563,0 521,68 572,78" /><polygon fill="url(#gradient_5)" points="572,78 521,83 553,119" /><polygon fill="url(#gradient_6)" points="553,119 532,127 565,127" /><polygon fill="#5E6377" points="565,127 532,138 560,138" /><polygon fill="#D1D7CC" points="560,138 528,162 554,176" /><polygon fill="url(#gradient_4)" points="554,176 517,181 563,266" /><polygon fill="url(#gradient_5)" points="563,266 534,288 560,297" /><polygon fill="url(#gradient_3)" points="560,297 523,320 569,329" /><polygon fill="#D1D7CC" points="569,329 517,357 556,378" /><polygon fill="#C1C7BC" points="556,378 519,381 556,383" /><polygon fill="url(#gradient_2)" points="556,383 517,387 576,451" /><polygon fill="#FFFFFF" points="576,451 536,478 560,507" /><polygon fill="#C9CDE0" points="560,507 532,545 554,600" /><polygon fill="#C1C7BC" points="521,68 572,78 521,83" /><polygon fill="url(#gradient_6)" points="521,83 553,119 532,127" /><polygon fill="url(#gradient_2)" points="532,127 565,127 532,138" /><polygon fill="#C1C7BC" points="532,138 560,138 528,162" /><polygon fill="url(#gradient_0)" points="528,162 554,176 517,181" /><polygon fill="url(#gradient_2)" points="517,181 563,266 534,288" /><polygon fill="url(#gradient_2)" points="534,288 560,297 523,320" /><polygon fill="#DDDDDD" points="523,320 569,329 517,357" /><polygon fill="#CBD3D2" points="517,357 556,378 519,381" /><polygon fill="#5E6377" points="519,381 556,383 517,387" /><polygon fill="url(#gradient_5)" points="517,387 576,451 536,478" /><polygon fill="#7E8397" points="536,478 560,507 532,545" /><polygon fill="url(#gradient_1)" points="484,0 563,0 521,68" /><polygon fill="#CBD3D2" points="498,600 554,600 532,545" /><polygon fill="url(#gradient_6)" points="563,0 600,35 572,78" /><polygon fill="#D1D7CC" points="572,78 619,118 553,119" /><polygon fill="#C0C0C0" points="553,119 605,119 565,127" /><polygon fill="#C9CDE0" points="565,127 604,132 560,138" /><polygon fill="#FFFFFF" points="560,138 599,139 554,176" /><polygon fill="#7E8397" points="554,176 612,187 563,266" /><polygon fill="#DDDDDD" points="563,266 594,277 560,297" /><polygon fill="url(#gradient_1)" points="560,297 606,321 569,329" /><polygon fill="#7E8397" points="569,329 614,374 556,378" /><polygon fill="url(#gradient_6)" points="556,378 593,378 556,383" /><polygon fill="url(#gradient_2)" points="556,383 618,403 576,451" /><polygon fill="url(#gradient_1)" points="576,451 603,498 560,507" /><polygon fill="#5E6377" points="560,507 604,516 554,600" /><polygon fill="#C8CBDE" points="600,35 572,78 619,118" /><polygon fill="url(#gradient_3)" points="619,118 553,119 605,119" /><polygon fill="url(#gradient_2)" points="605,119 565,127 604,132" /><polygon fill="url(#gradient_0)" points="604,132 560,138 599,139" /><polygon fill="#D1D7CC" points="599,139 554,176 612,187" /><polygon fill="#CBD3D2" points="612,187 563,266 594,277" /><polygon fill="#C0C0C0" points="594,277 560,297 606,321" /><polygon fill="#7E8397" points="606,321 569,329 614,374" /><polygon fill="#D1D7CC" points="614,374 556,378 593,378" /><polygon fill="#DDDDDD" points="593,378 556,383 618,403" /><polygon fill="#DDDDDD" points="618,403 576,451 603,498" /><polygon fill="url(#gradient_4)" points="603,498 560,507 604,516" /><polygon fill="#C8CBDE" points="658,0 600,35 654,54" /><polygon fill="#CBD3D2" points="654,54 619,118 639,118" /><polygon fill="url(#gradient_5)" points="639,118 605,119 647,129" /><polygon fill="url(#gradient_3)" points="647,129 604,132 642,135" /><polygon fill="#DBE3E2" points="642,135 599,139 652,152" /><polygon fill="url(#gradient_8)" points="652,152 612,187 644,209" /><polygon fill="#D1D7CC" points="644,209 594,277 644,315" /><polygon fill="#CBD3D2" points="644,315 606,321 662,366" /><polygon fill="url(#gradient_9)" points="662,366 614,374 641,374" /><polygon fill="url(#gradient_2)" points="641,374 593,378 651,389" /><polygon fill="#C0C0C0" points="651,389 618,403 656,488" /><polygon fill="url(#gradient_3)" points="656,488 603,498 641,504" /><polygon fill="#C1C7BC" points="641,504 604,516 661,600" /><polygon fill="#CBD3D2" points="600,35 654,54 619,118" /><polygon fill="url(#gradient_3)" points="619,118 639,118 605,119" /><polygon fill="url(#gradient_4)" points="605,119 647,129 604,132" /><polygon fill="url(#gradient_7)" points="604,132 642,135 599,139" /><polygon fill="#C1C7BC" points="599,139 652,152 612,187" /><polygon fill="#C1C7BC" points="612,187 644,209 594,277" /><polygon fill="#FFFFFF" points="594,277 644,315 606,321" /><polygon fill="#DDDDDD" points="606,321 662,366 614,374" /><polygon fill="url(#gradient_7)" points="614,374 641,374 593,378" /><polygon fill="#C9CDE0" points="593,378 651,389 618,403" /><polygon fill="url(#gradient_3)" points="618,403 656,488 603,498" /><polygon fill="#D1D7CC" points="603,498 641,504 604,516" /><polygon fill="#D1D7CC" points="563,0 658,0 600,35" /><polygon fill="#DBE3E2" points="554,600 661,600 604,516" /><polygon fill="url(#gradient_2)" points="658,0 681,6 654,54" /><polygon fill="#7E8397" points="654,54 690,62 639,118" /><polygon fill="url(#gradient_7)" points="639,118 699,128 647,129" /><polygon fill="url(#gradient_6)" points="647,129 696,131 642,135" /><polygon fill="url(#gradient_2)" points="642,135 687,135 652,152" /><polygon fill="#C0C0C0" points="652,152 679,163 644,209" /><polygon fill="#D1D7CC" points="644,209 685,305 644,315" /><polygon fill="url(#gradient_1)" points="644,315 704,336 662,366" /><polygon fill="url(#gradient_8)" points="662,366 705,369 641,374" /><polygon fill="#5E6377" points="641,374 681,383 651,389" /><polygon fill="url(#gradient_9)" points="651,389 692,425 656,488" /><polygon fill="url(#gradient_2)" points="656,488 687,489 641,504" /><polygon fill="url(#gradient_5)" points="641,504 702,548 661,600" /><polygon fill="url(#gradient_7)" points="681,6 654,54 690,62" /><polygon fill="url(#gradient_6)" points="690,62 639,118 699,128" /><polygon fill="url(#gradient_8)" points="699,128 647,129 696,131" /><polygon fill="#D1D7CC" points="696,131 642,135 687,135" /><polygon fill="url(#gradient_3)" points="687,135 652,152 679,163" /><polygon fill="#DBE3E2" points="679,163 644,209 685,305" /><polygon fill="#FFFFFF" points="685,305 644,315 704,336" /><polygon fill="#C0C0C0" points="704,336 662,366 705,369" /><polygon fill="#DBE3E2" points="705,369 641,374 681,383" /><polygon fill="url(#gradient_9)" points="681,383 651,389 692,425" /><polygon fill="#C8CBDE" points="692,425 656,488 687,489" /><polygon fill="url(#gradient_9)" points="687,489 641,504 702,548" /><polygon fill="#7E8397" points="736,0 681,6 738,58" /><polygon fill="#DDDDDD" points="738,58 690,62 722,84" /><polygon fill="url(#gradient_1)" points="722,84 699,128 729,130" /><polygon fill="url(#gradient_3)" points="729,130 696,131 746,132" /><polygon fill="url(#gradient_0)" points="746,132 687,135 735,140" /><polygon fill="url(#gradient_7)" points="735,140 679,163 737,211" /><polygon fill="url(#gradient_3)" points="737,211 685,305 725,334" /><polygon fill="#5E6377" points="725,334 704,336 737,351" /><polygon fill="url(#gradient_0)" points="737,351 705,369 726,370" /><polygon fill="url(#gradient_1)" points="726,370 681,383 738,402" /><polygon fill="#FFFFFF" points="738,402 692,425 746,439" /><polygon fill="url(#gradient_0)" points="746,439 687,489 727,503" /><polygon fill="url(#gradient_3)" points="727,503 702,548 737,600" /><polygon fill="#DDDDDD" points="681,6 738,58 690,62" /><polygon fill="url(#gradient_3)" points="690,62 722,84 699,128" /><polygon fill="url(#gradient_8)" points="699,128 729,130 696,131" /><polygon fill="url(#gradient_0)" points="696,131 746,132 687,135" /><polygon fill="url(#gradient_9)" points="687,135 735,140 679,163" /><polygon fill="url(#gradient_4)" points="679,163 737,211 685,305" /><polygon fill="url(#gradient_6)" points="685,305 725,334 704,336" /><polygon fill="#5E6377" points="704,336 737,351 705,369" /><polygon fill="url(#gradient_0)" points="705,369 726,370 681,383" /><polygon fill="url(#gradient_5)" points="681,383 738,402 692,425" /><polygon fill="url(#gradient_5)" points="692,425 746,439 687,489" /><polygon fill="#FFFFFF" points="687,489 727,503 702,548" /><polygon fill="url(#gradient_2)" points="658,0 736,0 681,6" /><polygon fill="url(#gradient_3)" points="661,600 737,600 702,548" /><polygon fill="url(#gradient_4)" points="736,0 786,4 738,58" /><polygon fill="#CBD3D2" points="738,58 763,59 722,84" /><polygon fill="#D1D7CC" points="722,84 772,128 729,130" /><polygon fill="#C0C0C0" points="729,130 774,130 746,132" /><polygon fill="url(#gradient_4)" points="746,132 764,132 735,140" /><polygon fill="url(#gradient_3)" points="735,140 766,147 737,211" /><polygon fill="#DDDDDD" points="737,211 770,260 725,334" /><polygon fill="url(#gradient_5)" points="725,334 775,337 737,351" /><polygon fill="url(#gradient_7)" points="737,351 789,356 726,370" /><polygon fill="#C9CDE0" points="726,370 766,378 738,402" /><polygon fill="#C0C0C0" points="738,402 763,420 746,439" /><polygon fill="url(#gradient_5)" points="746,439 781,448 727,503" /><polygon fill="#FFFFFF" points="727,503 789,538 737,600" /><polygon fill="#7E8397" points="786,4 738,58 763,59" /><polygon fill="#CBD3D2" points="763,59 722,84 772,128" /><polygon fill="url(#gradient_0)" points="772,128 729,130 774,130" /><polygon fill="#C0C0C0" points="774,130 746,132 764,132" /><polygon fill="url(#gradient_2)" points="764,132 735,140 766,147" /><polygon fill="url(#gradient_4)" points="766,147 737,211 770,260" /><polygon fill="#C1C7BC" points="770,260 725,334 775,337" /><polygon fill="url(#gradient_2)" points="775,337 737,351 789,356" /><polygon fill="#CBD3D2" points="789,356 726,370 766,378" /><polygon fill="#C8CBDE" points="766,378 738,402 763,420" /><polygon fill="url(#gradient_3)" points="763,420 746,439 781,448" /><polygon fill="url(#gradient_8)" points="781,448 727,503 789,538" /><polygon fill="url(#gradient_6)" points="815,0 786,4 810,31" /><polygon fill="url(#gradient_9)" points="810,31 763,59 820,81" /><polygon fill="#DBE3E2" points="820,81 772,128 831,129" /><polygon fill="#DBE3E2" points="831,129 774,130 816,130" /><polygon fill="#7E8397" points="816,130 764,132 820,133" /><polygon fill="url(#gradient_9)" points="820,133 766,147 812,227" /><polygon fill="#7E8397" points="812,227 770,260 817,305" /><polygon fill="url(#gradient_8)" points="817,305 775,337 832,354" /><polygon fill="#FFFFFF" points="832,354 789,356 819,370" /><polygon fill="#C9CDE0" points="819,370 766,378 810,419" /><polygon fill="url(#gradient_5)" points="810,419 763,420 815,446" /><polygon fill="url(#gradient_6)" points="815,446 781,448 817,471" /><polygon fill="url(#gradient_0)" points="817,471 789,538 829,600" /><polygon fill="#C8CBDE" points="786,4 810,31 763,59" /><polygon fill="#C9CDE0" points="763,59 820,81 772,128" /><polygon fill="#C0C0C0" points="772,128 831,129 774,130" /><polygon fill="url(#gradient_4)" points="774,130 816,130 764,132" /><polygon fill="#C1C7BC" points="764,132 820,133 766,147" /><polygon fill="#C8CBDE" points="766,147 812,227 770,260" /><polygon fill="#DDDDDD" points="770,260 817,305 775,337" /><polygon fill="url(#gradient_4)" points="775,337 832,354 789,356" /><polygon fill="url(#gradient_6)" points="789,356 819,370 766,378" /><polygon fill="url(#gradient_0)" points="766,378 810,419 763,420" /><polygon fill="#DBE3E2" points="763,420 815,446 781,448" /><polygon fill="#DBE3E2" points="781,448 817,471 789,538" /><polygon fill="url(#gradient_2)" points="736,0 815,0 786,4" /><polygon fill="#FFFFFF" points="737,600 829,600 789,538" /><polygon fill="#CBD3D2" points="815,0 866,11 810,31" /><polygon fill="#C0C0C0" points="810,31 868,66 820,81" /><polygon fill="url(#gradient_2)" points="820,81 862,108 831,129" /><polygon fill="url(#gradient_4)" points="831,129 867,129 816,130" /><polygon fill="url(#gradient_2)" points="816,130 869,132 820,133" /><polygon fill="#5E6377" points="820,133 865,161 812,227" /><polygon fill="url(#gradient_5)" points="812,227 862,242 817,305" /><polygon fill="url(#gradient_0)" points="817,305 865,311 832,354" /><polygon fill="url(#gradient_3)" points="832,354 866,366 819,370" /><polygon fill="#DDDDDD" points="819,370 853,408 810,419" /><polygon fill="#C8CBDE" points="810,419 857,445 815,446" /><polygon fill="url(#gradient_8)" points="815,446 874,462 817,471" /><polygon fill="#DDDDDD" points="817,471 854,551 829,600" /><polygon fill="url(#gradient_0)" points="866,11 810,31 868,66" /><polygon fill="url(#gradient_2)" points="868,66 820,81 862,108" /><polygon fill="url(#gradient_9)" points="862,108 831,129 867,129" /><polygon fill="url(#gradient_8)" points="867,129 816,130 869,132" /><polygon fill="#C8CBDE" points="869,132 820,133 865,161" /><polygon fill="url(#gradient_3)" points="865,161 812,227 862,242" /><polygon fill="url(#gradient_0)" points="862,242 817,305 865,311" /><polygon fill="url(#gradient_5)" points="865,311 832,354 866,366" /><polygon fill="url(#gradient_4)" points="866,366 819,370 853,408" /><polygon fill="#C9CDE0" points="853,408 810,419 857,445" /><polygon fill="url(#gradient_4)" points="857,445 815,446 874,462" /><polygon fill="url(#gradient_1)" points="874,462 817,471 854,551" /><polygon fill="#C8CBDE" points="908,0 866,11 917,63" /><polygon fill="url(#gradient_0)" points="917,63 868,66 913,106" /><polygon fill="#7E8397" points="913,106 862,108 916,112" /><polygon fill="#FFFFFF" points="916,112 867,129 914,129" /><polygon fill="url(#gradient_7)" points="914,129 869,132 892,141" /><polygon fill="#CBD3D2" points="892,141 865,161 910,207" /><polygon fill="url(#gradient_4)" points="910,207 862,242 893,244" /><polygon fill="url(#gradient_8)" points="893,244 865,311 902,329" /><polygon fill="#CBD3D2" points="902,329 866,366 899,378" /><polygon fill="#D1D7CC" points="899,378 853,408 912,433" /><polygon fill="#5E6377" points="912,433 857,445 902,449" /><polygon fill="url(#gradient_5)" points="902,449 874,462 915,485" /><polygon fill="#DBE3E2" points="915,485 854,551 892,600" /><polygon fill="#DDDDDD" points="866,11 917,63 868,66" /><polygon fill="#5E6377" points="868,66 913,106 862,108" /><polygon fill="#C8CBDE" points="862,108 916,112 867,129" /><polygon fill="url(#gradient_5)" points="867,129 914,129 869,132" /><polygon fill="#C8CBDE" points="869,132 892,141 865,161" /><polygon fill="#C8CBDE" points="865,161 910,207 862,242" /><polygon fill="url(#gradient_3)" points="862,242 893,244 865,311" /><polygon fill="#DBE3E2" points="865,311 902,329 866,366" /><polygon fill="#7E8397" points="866,366 899,378 853,408" /><polygon fill="url(#gradient_4)" points="853,408 912,433 857,445" /><polygon fill="url(#gradient_2)" points="857,445 902,449 874,462" /><polygon fill="#C0C0C0" points="874,462 915,485 854,551" /><polygon fill="url(#gradient_4)" points="815,0 908,0 866,11" /><polygon fill="url(#gradient_8)" points="829,600 892,600 854,551" /><polygon fill="url(#gradient_2)" points="908,0 936,31 917,63" /><polygon fill="#C1C7BC" points="917,63 945,103 913,106" /><polygon fill="url(#gradient_3)" points="913,106 939,110 916,112" /><polygon fill="#D1D7CC" points="916,112 941,128 914,129" /><polygon fill="url(#gradient_7)" points="914,129 948,137 892,141" /><polygon fill="#C8CBDE" points="892,141 955,197 910,207" /><polygon fill="#C8CBDE" points="910,207 946,228 893,244" /><polygon fill="url(#gradient_2)" points="893,244 945,257 902,329" /><polygon fill="url(#gradient_4)" points="902,329 950,364 899,378" /><polygon fill="url(#gradient_6)" points="899,378 959,428 912,433" /><polygon fill="url(#gradient_5)" points="912,433 948,448 902,449" /><polygon fill="url(#gradient_9)" points="902,449 957,456 915,485" /><polygon fill="url(#gradient_0)" points="915,485 939,575 892,600" /><polygon fill="#CBD3D2" points="936,31 917,63 945,103" /><polygon fill="url(#gradient_4)" points="945,103 913,106 939,110" /><polygon fill="url(#gradient_5)" points="939,110 916,112 941,128" /><polygon fill="url(#gradient_6)" points="941,128 914,129 948,137" /><polygon fill="url(#gradient_3)" points="948,137 892,141 955,197" /><polygon fill="#C8CBDE" points="955,197 910,207 946,228" /><polygon fill="url(#gradient_8)" points="946,228 893,244 945,257" /><polygon fill="#C8CBDE" points="945,257 902,329 950,364" /><polygon fill="#5E6377" points="950,364 899,378 959,428" /><polygon fill="url(#gradient_5)" points="959,428 912,433 948,448" /><polygon fill="url(#gradient_9)" points="948,448 902,449 957,456" /><polygon fill="#C1C7BC" points="957,456 915,485 939,575" /><polygon fill="#DBE3E2" points="1000,0 936,31 1000,67" /><polygon fill="url(#gradient_6)" points="1000,67 945,103 1000,106" /><polygon fill="#D1D7CC" points="1000,106 939,110 1000,114" /><polygon fill="#C8CBDE" points="1000,114 941,128 1000,132" /><polygon fill="url(#gradient_0)" points="1000,132 948,137 1000,156" /><polygon fill="url(#gradient_4)" points="1000,156 955,197 1000,214" /><polygon fill="url(#gradient_4)" points="1000,214 946,228 1000,253" /><polygon fill="#D1D7CC" points="1000,253 945,257 1000,312" /><polygon fill="#C0C0C0" points="1000,312 950,364 1000,372" /><polygon fill="#C9CDE0" points="1000,372 959,428 1000,429" /><polygon fill="url(#gradient_3)" points="1000,429 948,448 1000,448" /><polygon fill="url(#gradient_4)" points="1000,448 957,456 1000,545" /><polygon fill="url(#gradient_9)" points="1000,545 939,575 1000,600" /><polygon fill="#DDDDDD" points="936,31 1000,67 945,103" /><polygon fill="#CBD3D2" points="945,103 1000,106 939,110" /><polygon fill="#C0C0C0" points="939,110 1000,114 941,128" /><polygon fill="url(#gradient_8)" points="941,128 1000,132 948,137" /><polygon fill="url(#gradient_5)" points="948,137 1000,156 955,197" /><polygon fill="url(#gradient_6)" points="955,197 1000,214 946,228" /><polygon fill="#D1D7CC" points="946,228 1000,253 945,257" /><polygon fill="url(#gradient_2)" points="945,257 1000,312 950,364" /><polygon fill="url(#gradient_7)" points="950,364 1000,372 959,428" /><polygon fill="url(#gradient_7)" points="959,428 1000,429 948,448" /><polygon fill="#C0C0C0" points="948,448 1000,448 957,456" /><polygon fill="#C9CDE0" points="957,456 1000,545 939,575" /><polygon fill="url(#gradient_4)" points="908,0 1000,0 936,31" /><polygon fill="url(#gradient_1)" points="892,600 1000,600 939,575" /></svg>