<?xml version="1.0" encoding="utf-8" ?>
<svg baseProfile="full" height="100%" version="1.1" width="100%" xmlns="http://www.w3.org/2000/svg" xmlns:ev="http://www.w3.org/2001/xml-events" xmlns:xlink="http://www.w3.org/1999/xlink"><defs /><defs id="gradients"><linearGradient id="gradient_0" x1="0" x2="0" y1="0" y2="1"><stop offset="0.0" stop-color="#C0C0C0" /><stop offset="1.0" stop-color="#CBD3D2" /></linearGradient><linearGradient id="gradient_1" x1="0" x2="0" y1="0" y2="1"><stop offset="0.0" stop-color="#C9CDDF" /><stop offset="1.0" stop-color="#FFFFFF" /></linearGradient><linearGradient id="gradient_2" x1="0" x2="0" y1="0" y2="1"><stop offset="0.0" stop-color="#CBD3D2" /><stop offset="1.0" stop-color="#C1C7BC" /></linearGradient><linearGradient id="gradient_3" x1="0" x2="0" y1="0" y2="1"><stop offset="0.0" stop-color="#D1D7CC" /><stop offset="1.0" stop-color="#CBD3D2" /></linearGradient><linearGradient id="gradient_4" x1="0" x2="1" y1="0" y2="0"><stop offset="0.0" stop-color="#C7CBDE" /><stop offset="1.0" stop-color="#DBE3E2" /></linearGradient><linearGradient id="gradient_5" x1="0" x2="1" y1="0" y2="0"><stop offset="0.0" stop-color="#CBD3D2" /><stop offset="1.0" stop-color="#DBE3E2" /></linearGradient><linearGradient id="gradient_6" x1="0" x2="0" y1="0" y2="1"><stop offset="0.0" stop-color="#C0C0C0" /><stop offset="1.0" stop-color="#DBE3E2" /></linearGradient><linearGradient id="gradient_7" x1="0" x2="0" y1="0" y2="1"><stop offset="0.0" stop-color="#5E6377" /><stop offset="1.0" stop-color="#C9CDDF" /></linearGradient><linearGradient id="gradient_8" x1="0" x2="1" y1="0" y2="1"><stop offset="0.0" stop-color="#C1C7BC" /><stop offset="1.0" stop-color="#DDDDDD" /></linearGradient><linearGradient id="gradient_9" x1="0" x2="1" y1="0" y2="1"><stop offset="0.0" stop-color="#7E8397" /><stop offset="1.0" stop-color="#DDDDDD" /></linearGradient></defs><polygon fill="url(#gradient_2)" points="0,0 39,4 0,46" /><polygon fill="url(#gradient_7)" points="0,46 29,47 0,92" /><polygon fill="url(#gradient_7)" points="0,92 34,136 0,138" /><polygon fill="#DBE3E2" points="0,138 28,168 0,184" /><polygon fill="url(#gradient_5)" points="0,184 34,185 0,230" /><polygon fill="url(#gradient_6)" points="0,230 26,241 0,276" /><polygon fill="url(#gradient_8)" points="0,276 41,291 0,323" /><polygon fill="url(#gradient_5)" points="0,323 37,357 0,369" /><polygon fill="#C9CDDF" points="0,369 32,400 0,415" /><polygon fill="url(#gradient_8)" points="0,415 22,454 0,461" /><polygon fill="#C9CDDF" points="0,461 40,461 0,507" /><polygon fill="url(#gradient_1)" points="0,507 43,534 0,553" /><polygon fill="url(#gradient_3)" points="0,553 32,590 0,600" /><polygon fill="#C9CDDF" points="39,4 0,46 29,47" /><polygon fill="url(#gradient_6)" points="29,47 0,92 34,136" /><polygon fill="url(#gradient_4)" points="34,136 0,138 28,168" /><polygon fill="#FFFFFF" points="28,168 0,184 34,185" /><polygon fill="#C1C7BC" points="34,185 0,230 26,241" /><polygon fill="#7E8397" points="26,241 0,276 41,291" /><polygon fill="#FFFFFF" points="41,291 0,323 37,357" /><polygon fill="#5E6377" points="37,357 0,369 32,400" /><polygon fill="url(#gradient_8)" points="32,400 0,415 22,454" /><polygon fill="url(#gradient_3)" points="22,454 0,461 40,461" /><polygon fill="url(#gradient_9)" points="40,461 0,507 43,534" /><polygon fill="#FFFFFF" points="43,534 0,553 32,590" /><polygon fill="url(#gradient_0)" points="69,0 39,4 80,13" /><polygon fill="#DBE3E2" points="80,13 29,47 82,79" /><polygon fill="#C7CBDE" points="82,79 34,136 69,140" /><polygon fill="url(#gradient_0)" points="69,140 28,168 77,178" /><polygon fill="url(#gradient_6)" points="77,178 34,185 64,193" /><polygon fill="url(#gradient_0)" points="64,193 26,241 63,242" /><polygon fill="#7E8397" points="63,242 41,291 68,344" /><polygon fill="url(#gradient_6)" points="68,344 37,357 78,368" /><polygon fill="url(#gradient_4)" points="78,368 32,400 68,428" /><polygon fill="#C7CBDE" points="68,428 22,454 61,455" /><polygon fill="url(#gradient_2)" points="61,455 40,461 70,512" /><polygon fill="url(#gradient_7)" points="70,512 43,534 61,578" /><polygon fill="#DDDDDD" points="61,578 32,590 66,600" /><polygon fill="#D1D7CC" points="39,4 80,13 29,47" /><polygon fill="url(#gradient_6)" points="29,47 82,79 34,136" /><polygon fill="#5E6377" points="34,136 69,140 28,168" /><polygon fill="#D1D7CC" points="28,168 77,178 34,185" /><polygon fill="url(#gradient_3)" points="34,185 64,193 26,241" /><polygon fill="url(#gradient_2)" points="26,241 63,242 41,291" /><polygon fill="#DBE3E2" points="41,291 68,344 37,357" /><polygon fill="#C0C0C0" points="37,357 78,368 32,400" /><polygon fill="url(#gradient_1)" points="32,400 68,428 22,454" /><polygon fill="#D1D7CC" points="22,454 61,455 40,461" /><polygon fill="url(#gradient_4)" points="40,461 70,512 43,534" /><polygon fill="url(#gradient_2)" points="43,534 61,578 32,590" /><polygon fill="#C1C7BC" points="0,0 69,0 39,4" /><polygon fill="url(#gradient_5)" points="0,600 66,600 32,590" /><polygon fill="url(#gradient_4)" points="69,0 122,8 80,13" /><polygon fill="#C9CDDF" points="80,13 116,71 82,79" /><polygon fill="url(#gradient_6)" points="82,79 101,103 69,140" /><polygon fill="url(#gradient_2)" points="69,140 103,176 77,178" /><polygon fill="url(#gradient_6)" points="77,178 122,184 64,193" /><polygon fill="#DBE3E2" points="64,193 117,227 63,242" /><polygon fill="url(#gradient_3)" points="63,242 106,305 68,344" /><polygon fill="#CBD3D2" points="68,344 117,344 78,368" /><polygon fill="#C7CBDE" points="78,368 102,406 68,428" /><polygon fill="url(#gradient_3)" points="68,428 124,435 61,455" /><polygon fill="url(#gradient_8)" points="61,455 120,477 70,512" /><polygon fill="#C7CBDE" points="70,512 121,519 61,578" /><polygon fill="#C1C7BC" points="61,578 104,598 66,600" /><polygon fill="#7E8397" points="122,8 80,13 116,71" /><polygon fill="url(#gradient_3)" points="116,71 82,79 101,103" /><polygon fill="url(#gradient_6)" points="101,103 69,140 103,176" /><polygon fill="#C1C7BC" points="103,176 77,178 122,184" /><polygon fill="#DBE3E2" points="122,184 64,193 117,227" /><polygon fill="url(#gradient_9)" points="117,227 63,242 106,305" /><polygon fill="url(#gradient_7)" points="106,305 68,344 117,344" /><polygon fill="url(#gradient_0)" points="117,344 78,368 102,406" /><polygon fill="url(#gradient_2)" points="102,406 68,428 124,435" /><polygon fill="url(#gradient_3)" points="124,435 61,455 120,477" /><polygon fill="#D1D7CC" points="120,477 70,512 121,519" /><polygon fill="#C1C7BC" points="121,519 61,578 104,598" /><polygon fill="url(#gradient_4)" points="160,0 122,8 142,27" /><polygon fill="#7E8397" points="142,27 116,71 152,102" /><polygon fill="#FFFFFF" points="152,102 101,103 144,114" /><polygon fill="#C7CBDE" points="144,114 103,176 143,179" /><polygon fill="url(#gradient_5)" points="143,179 122,184 163,198" /><polygon fill="url(#gradient_1)" points="163,198 117,227 151,251" /><polygon fill="url(#gradient_9)" points="151,251 106,305 158,338" /><polygon fill="url(#gradient_1)" points="158,338 117,344 155,400" /><polygon fill="#DDDDDD" points="155,400 102,406 163,421" /><polygon fill="#7E8397" points="163,421 124,435 146,435" /><polygon fill="url(#gradient_2)" points="146,435 120,477 148,505" /><polygon fill="url(#gradient_8)" points="148,505 121,519 155,548" /><polygon fill="url(#gradient_2)" points="155,548 104,598 167,600" /><polygon fill="url(#gradient_5)" points="122,8 142,27 116,71" /><polygon fill="url(#gradient_8)" points="116,71 152,102 101,103" /><polygon fill="#D1D7CC" points="101,103 144,114 103,176" /><polygon fill="#DDDDDD" points="103,176 143,179 122,184" /><polygon fill="url(#gradient_6)" points="122,184 163,198 117,227" /><polygon fill="#DDDDDD" points="117,227 151,251 106,305" /><polygon fill="url(#gradient_2)" points="106,305 158,338 117,344" /><polygon fill="#C0C0C0" points="117,344 155,400 102,406" /><polygon fill="#C7CBDE" points="102,406 163,421 124,435" /><polygon fill="#FFFFFF" points="124,435 146,435 120,477" /><polygon fill="url(#gradient_0)" points="120,477 148,505 121,519" /><polygon fill="url(#gradient_6)" points="121,519 155,548 104,598" /><polygon fill="url(#gradient_2)" points="69,0 160,0 122,8" /><polygon fill="#C1C7BC" points="66,600 167,600 104,598" /><polygon fill="#C7CBDE" points="160,0 201,3 142,27" /><polygon fill="url(#gradient_4)" points="142,27 206,96 152,102" /><polygon fill="url(#gradient_2)" points="152,102 200,104 144,114" /><polygon fill="#7E8397" points="144,114 188,142 143,179" /><polygon fill="#FFFFFF" points="143,179 191,190 163,198" /><polygon fill="#DDDDDD" points="163,198 185,201 151,251" /><polygon fill="#5E6377" points="151,251 204,258 158,338" /><polygon fill="url(#gradient_0)" points="158,338 204,341 155,400" /><polygon fill="#C1C7BC" points="155,400 192,401 163,421" /><polygon fill="#DDDDDD" points="163,421 194,421 146,435" /><polygon fill="url(#gradient_8)" points="146,435 188,475 148,505" /><polygon fill="url(#gradient_7)" points="148,505 198,547 155,548" /><polygon fill="#C9CDDF" points="155,548 193,561 167,600" /><polygon fill="#C9CDDF" points="201,3 142,27 206,96" /><polygon fill="#C9CDDF" points="206,96 152,102 200,104" /><polygon fill="#DDDDDD" points="200,104 144,114 188,142" /><polygon fill="#7E8397" points="188,142 143,179 191,190" /><polygon fill="url(#gradient_7)" points="191,190 163,198 185,201" /><polygon fill="url(#gradient_1)" points="185,201 151,251 204,258" /><polygon fill="url(#gradient_4)" points="204,258 158,338 204,341" /><polygon fill="#5E6377" points="204,341 155,400 192,401" /><polygon fill="url(#gradient_1)" points="192,401 163,421 194,421" /><polygon fill="#C1C7BC" points="194,421 146,435 188,475" /><polygon fill="url(#gradient_1)" points="188,475 148,505 198,547" /><polygon fill="url(#gradient_9)" points="198,547 155,548 193,561" /><polygon fill="#DDDDDD" points="229,0 201,3 224,16" /><polygon fill="#C9CDDF" points="224,16 206,96 246,102" /><polygon fill="url(#gradient_2)" points="246,102 200,104 234,124" /><polygon fill="#CBD3D2" points="234,124 188,142 240,153" /><polygon fill="url(#gradient_3)" points="240,153 191,190 238,200" /><polygon fill="#DBE3E2" points="238,200 185,201 229,248" /><polygon fill="#FFFFFF" points="229,248 204,258 225,259" /><polygon fill="#CBD3D2" points="225,259 204,341 236,363" /><polygon fill="#C9CDDF" points="236,363 192,401 242,409" /><polygon fill="url(#gradient_7)" points="242,409 194,421 235,474" /><polygon fill="url(#gradient_0)" points="235,474 188,475 236,536" /><polygon fill="url(#gradient_3)" points="236,536 198,547 228,557" /><polygon fill="url(#gradient_8)" points="228,557 193,561 241,600" /><polygon fill="#D1D7CC" points="201,3 224,16 206,96" /><polygon fill="#D1D7CC" points="206,96 246,102 200,104" /><polygon fill="#DDDDDD" points="200,104 234,124 188,142" /><polygon fill="#CBD3D2" points="188,142 240,153 191,190" /><polygon fill="#CBD3D2" points="191,190 238,200 185,201" /><polygon fill="#C9CDDF" points="185,201 229,248 204,258" /><polygon fill="#DDDDDD" points="204,258 225,259 204,341" /><polygon fill="url(#gradient_1)" points="204,341 236,363 192,401" /><polygon fill="url(#gradient_4)" points="192,401 242,409 194,421" /><polygon fill="url(#gradient_0)" points="194,421 235,474 188,475" /><polygon fill="url(#gradient_6)" points="188,475 236,536 198,547" /><polygon fill="#D1D7CC" points="198,547 228,557 193,561" /><polygon fill="#C7CBDE" points="160,0 229,0 201,3" /><polygon fill="url(#gradient_6)" points="167,600 241,600 193,561" /><polygon fill="#D1D7CC" points="229,0 274,13 224,16" /><polygon fill="#DBE3E2" points="224,16 277,86 246,102" /><polygon fill="url(#gradient_3)" points="246,102 263,113 234,124" /><polygon fill="#DDDDDD" points="234,124 273,130 240,153" /><polygon fill="#FFFFFF" points="240,153 277,187 238,200" /><polygon fill="#C9CDDF" points="238,200 285,224 229,248" /><polygon fill="#D1D7CC" points="229,248 272,248 225,259" /><polygon fill="#DBE3E2" points="225,259 281,329 236,363" /><polygon fill="#FFFFFF" points="236,363 282,401 242,409" /><polygon fill="#C0C0C0" points="242,409 268,434 235,474" /><polygon fill="url(#gradient_7)" points="235,474 263,510 236,536" /><polygon fill="#CBD3D2" points="236,536 275,552 228,557" /><polygon fill="url(#gradient_1)" points="228,557 277,558 241,600" /><polygon fill="#C7CBDE" points="274,13 224,16 277,86" /><polygon fill="url(#gradient_3)" points="277,86 246,102 263,113" /><polygon fill="#CBD3D2" points="263,113 234,124 273,130" /><polygon fill="url(#gradient_4)" points="273,130 240,153 277,187" /><polygon fill="#C7CBDE" points="277,187 238,200 285,224" /><polygon fill="url(#gradient_2)" points="285,224 229,248 272,248" /><polygon fill="#C0C0C0" points="272,248 225,259 281,329" /><polygon fill="#5E6377" points="281,329 236,363 282,401" /><polygon fill="#D1D7CC" points="282,401 242,409 268,434" /><polygon fill="#C0C0C0" points="268,434 235,474 263,510" /><polygon fill="url(#gradient_2)" points="263,510 236,536 275,552" /><polygon fill="#5E6377" points="275,552 228,557 277,558" /><polygon fill="url(#gradient_8)" points="328,0 274,13 314,42" /><polygon fill="url(#gradient_5)" points="314,42 277,86 312,97" /><polygon fill="#CBD3D2" points="312,97 263,113 328,121" /><polygon fill="url(#gradient_8)" points="328,121 273,130 304,170" /><polygon fill="url(#gradient_1)" points="304,170 277,187 319,198" /><polygon fill="url(#gradient_2)" points="319,198 285,224 306,235" /><polygon fill="#D1D7CC" points="306,235 272,248 308,319" /><polygon fill="url(#gradient_7)" points="308,319 281,329 310,400" /><polygon fill="#C9CDDF" points="310,400 282,401 315,418" /><polygon fill="#DBE3E2" points="315,418 268,434 327,491" /><polygon fill="#D1D7CC" points="327,491 263,510 313,534" /><polygon fill="url(#gradient_9)" points="313,534 275,552 308,553" /><polygon fill="url(#gradient_8)" points="308,553 277,558 307,600" /><polygon fill="url(#gradient_0)" points="274,13 314,42 277,86" /><polygon fill="url(#gradient_4)" points="277,86 312,97 263,113" /><polygon fill="#7E8397" points="263,113 328,121 273,130" /><polygon fill="#C7CBDE" points="273,130 304,170 277,187" /><polygon fill="#DBE3E2" points="277,187 319,198 285,224" /><polygon fill="#FFFFFF" points="285,224 306,235 272,248" /><polygon fill="url(#gradient_9)" points="272,248 308,319 281,329" /><polygon fill="url(#gradient_7)" points="281,329 310,400 282,401" /><polygon fill="#D1D7CC" points="282,401 315,418 268,434" /><polygon fill="#7E8397" points="268,434 327,491 263,510" /><polygon fill="#C7CBDE" points="263,510 313,534 275,552" /><polygon fill="#C0C0C0" points="275,552 308,553 277,558" /><polygon fill="#FFFFFF" points="229,0 328,0 274,13" /><polygon fill="#C1C7BC" points="241,600 307,600 277,558" /><polygon fill="#C1C7BC" points="328,0 351,30 314,42" /><polygon fill="url(#gradient_5)" points="314,42 371,55 312,97" /><polygon fill="#7E8397" points="312,97 350,104 328,121" /><polygon fill="url(#gradient_2)" points="328,121 347,152 304,170" /><polygon fill="#C1C7BC" points="304,170 349,188 319,198" /><polygon fill="url(#gradient_4)" points="319,198 350,234 306,235" /><polygon fill="url(#gradient_8)" points="306,235 367,317 308,319" /><polygon fill="#D1D7CC" points="308,319 358,343 310,400" /><polygon fill="#C0C0C0" points="310,400 368,411 315,418" /><polygon fill="#C9CDDF" points="315,418 363,436 327,491" /><polygon fill="url(#gradient_4)" points="327,491 365,520 313,534" /><polygon fill="url(#gradient_6)" points="313,534 348,535 308,553" /><polygon fill="url(#gradient_2)" points="308,553 364,586 307,600" /><polygon fill="url(#gradient_3)" points="351,30 314,42 371,55" /><polygon fill="url(#gradient_1)" points="371,55 312,97 350,104" /><polygon fill="#CBD3D2" points="350,104 328,121 347,152" /><polygon fill="url(#gradient_0)" points="347,152 304,170 349,188" /><polygon fill="url(#gradient_3)" points="349,188 319,198 350,234" /><polygon fill="#FFFFFF" points="350,234 306,235 367,317" /><polygon fill="url(#gradient_2)" points="367,317 308,319 358,343" /><polygon fill="url(#gradient_9)" points="358,343 310,400 368,411" /><polygon fill="#DBE3E2" points="368,411 315,418 363,436" /><polygon fill="#FFFFFF" points="363,436 327,491 365,520" /><polygon fill="#CBD3D2" points="365,520 313,534 348,535" /><polygon fill="url(#gradient_2)" points="348,535 308,553 364,586" /><polygon fill="#CBD3D2" points="389,0 351,30 401,36" /><polygon fill="url(#gradient_8)" points="401,36 371,55 396,89" /><polygon fill="url(#gradient_5)" points="396,89 350,104 413,143" /><polygon fill="url(#gradient_7)" points="413,143 347,152 399,161" /><polygon fill="url(#gradient_6)" points="399,161 349,188 398,192" /><polygon fill="url(#gradient_0)" points="398,192 350,234 413,286" /><polygon fill="#DBE3E2" points="413,286 367,317 413,340" /><polygon fill="#C0C0C0" points="413,340 358,343 397,398" /><polygon fill="url(#gradient_7)" points="397,398 368,411 393,423" /><polygon fill="url(#gradient_4)" points="393,423 363,436 410,465" /><polygon fill="#C9CDDF" points="410,465 365,520 414,531" /><polygon fill="url(#gradient_7)" points="414,531 348,535 407,563" /><polygon fill="#D1D7CC" points="407,563 364,586 410,600" /><polygon fill="url(#gradient_3)" points="351,30 401,36 371,55" /><polygon fill="url(#gradient_2)" points="371,55 396,89 350,104" /><polygon fill="#5E6377" points="350,104 413,143 347,152" /><polygon fill="url(#gradient_7)" points="347,152 399,161 349,188" /><polygon fill="#CBD3D2" points="349,188 398,192 350,234" /><polygon fill="#5E6377" points="350,234 413,286 367,317" /><polygon fill="#5E6377" points="367,317 413,340 358,343" /><polygon fill="#C7CBDE" points="358,343 397,398 368,411" /><polygon fill="url(#gradient_5)" points="368,411 393,423 363,436" /><polygon fill="url(#gradient_0)" points="363,436 410,465 365,520" /><polygon fill="url(#gradient_9)" points="365,520 414,531 348,535" /><polygon fill="#5E6377" points="348,535 407,563 364,586" /><polygon fill="url(#gradient_5)" points="328,0 389,0 351,30" /><polygon fill="url(#gradient_3)" points="307,600 410,600 364,586" /><polygon fill="#DBE3E2" points="389,0 438,11 401,36" /><polygon fill="url(#gradient_4)" points="401,36 436,78 396,89" /><polygon fill="url(#gradient_9)" points="396,89 447,121 413,143" /><polygon fill="url(#gradient_7)" points="413,143 431,148 399,161" /><polygon fill="#5E6377" points="399,161 433,167 398,192" /><polygon fill="#CBD3D2" points="398,192 437,222 413,286" /><polygon fill="url(#gradient_8)" points="413,286 452,315 413,340" /><polygon fill="url(#gradient_1)" points="413,340 438,387 397,398" /><polygon fill="#CBD3D2" points="397,398 452,415 393,423" /><polygon fill="#7E8397" points="393,423 457,424 410,465" /><polygon fill="url(#gradient_9)" points="410,465 437,487 414,531" /><polygon fill="url(#gradient_4)" points="414,531 446,552 407,563" /><polygon fill="#C9CDDF" points="407,563 441,563 410,600" /><polygon fill="url(#gradient_8)" points="438,11 401,36 436,78" /><polygon fill="url(#gradient_9)" points="436,78 396,89 447,121" /><polygon fill="#5E6377" points="447,121 413,143 431,148" /><polygon fill="url(#gradient_0)" points="431,148 399,161 433,167" /><polygon fill="url(#gradient_1)" points="433,167 398,192 437,222" /><polygon fill="#D1D7CC" points="437,222 413,286 452,315" /><polygon fill="url(#gradient_0)" points="452,315 413,340 438,387" /><polygon fill="url(#gradient_5)" points="438,387 397,398 452,415" /><polygon fill="#C9CDDF" points="452,415 393,423 457,424" /><polygon fill="url(#gradient_0)" points="457,424 410,465 437,487" /><polygon fill="#FFFFFF" points="437,487 414,531 446,552" /><polygon fill="#C7CBDE" points="446,552 407,563 441,563" /><polygon fill="#FFFFFF" points="493,0 438,11 476,22" /><polygon fill="#DDDDDD" points="476,22 436,78 497,109" /><polygon fill="#7E8397" points="497,109 447,121 493,142" /><polygon fill="url(#gradient_8)" points="493,142 431,148 498,157" /><polygon fill="#DDDDDD" points="498,157 433,167 481,214" /><polygon fill="#5E6377" points="481,214 437,222 496,308" /><polygon fill="#D1D7CC" points="496,308 452,315 479,373" /><polygon fill="#DDDDDD" points="479,373 438,387 486,410" /><polygon fill="url(#gradient_0)" points="486,410 452,415 493,415" /><polygon fill="#C1C7BC" points="493,415 457,424 492,486" /><polygon fill="#D1D7CC" points="492,486 437,487 478,489" /><polygon fill="#DBE3E2" points="478,489 446,552 474,552" /><polygon fill="url(#gradient_4)" points="474,552 441,563 500,600" /><polygon fill="url(#gradient_8)" points="438,11 476,22 436,78" /><polygon fill="#DBE3E2" points="436,78 497,109 447,121" /><polygon fill="#C9CDDF" points="447,121 493,142 431,148" /><polygon fill="#DBE3E2" points="431,148 498,157 433,167" /><polygon fill="#FFFFFF" points="433,167 481,214 437,222" /><polygon fill="#D1D7CC" points="437,222 496,308 452,315" /><polygon fill="url(#gradient_9)" points="452,315 479,373 438,387" /><polygon fill="#DBE3E2" points="438,387 486,410 452,415" /><polygon fill="#7E8397" points="452,415 493,415 457,424" /><polygon fill="#CBD3D2" points="457,424 492,486 437,487" /><polygon fill="url(#gradient_0)" points="437,487 478,489 446,552" /><polygon fill="#C1C7BC" points="446,552 474,552 441,563" /><polygon fill="url(#gradient_9)" points="389,0 493,0 438,11" /><polygon fill="#7E8397" points="410,600 500,600 441,563" /><polygon fill="#C1C7BC" points="493,0 525,0 476,22" /><polygon fill="#C1C7BC" points="476,22 529,24 497,109" /><polygon fill="#C7CBDE" points="497,109 528,121 493,142" /><polygon fill="url(#gradient_0)" points="493,142 538,151 498,157" /><polygon fill="#FFFFFF" points="498,157 519,188 481,214" /><polygon fill="url(#gradient_2)" points="481,214 519,281 496,308" /><polygon fill="#DDDDDD" points="496,308 541,348 479,373" /><polygon fill="#DBE3E2" points="479,373 540,394 486,410" /><polygon fill="#7E8397" points="486,410 518,411 493,415" /><polygon fill="url(#gradient_8)" points="493,415 533,479 492,486" /><polygon fill="#D1D7CC" points="492,486 531,487 478,489" /><polygon fill="#C0C0C0" points="478,489 534,494 474,552" /><polygon fill="#DBE3E2" points="474,552 539,571 500,600" /><polygon fill="#C0C0C0" points="525,0 476,22 529,24" /><polygon fill="#C0C0C0" points="529,24 497,109 528,121" /><polygon fill="#CBD3D2" points="528,121 493,142 538,151" /><polygon fill="#D1D7CC" points="538,151 498,157 519,188" /><polygon fill="#C0C0C0" points="519,188 481,214 519,281" /><polygon fill="#DDDDDD" points="519,281 496,308 541,348" /><polygon fill="#D1D7CC" points="541,348 479,373 540,394" /><polygon fill="#C9CDDF" points="540,394 486,410 518,411" /><polygon fill="#CBD3D2" points="518,411 493,415 533,479" /><polygon fill="url(#gradient_1)" points="533,479 492,486 531,487" /><polygon fill="url(#gradient_8)" points="531,487 478,489 534,494" /><polygon fill="url(#gradient_8)" points="534,494 474,552 539,571" /><polygon fill="url(#gradient_4)" points="569,0 525,0 574,23" /><polygon fill="#C7CBDE" points="574,23 529,24 571,37" /><polygon fill="url(#gradient_0)" points="571,37 528,121 582,143" /><polygon fill="url(#gradient_8)" points="582,143 538,151 571,185" /><polygon fill="#CBD3D2" points="571,185 519,188 570,197" /><polygon fill="url(#gradient_0)" points="570,197 519,281 576,305" /><polygon fill="url(#gradient_9)" points="576,305 541,348 573,365" /><polygon fill="#7E8397" points="573,365 540,394 568,400" /><polygon fill="url(#gradient_6)" points="568,400 518,411 582,455" /><polygon fill="#DDDDDD" points="582,455 533,479 563,482" /><polygon fill="url(#gradient_1)" points="563,482 531,487 558,487" /><polygon fill="url(#gradient_5)" points="558,487 534,494 576,534" /><polygon fill="#DDDDDD" points="576,534 539,571 565,600" /><polygon fill="url(#gradient_1)" points="525,0 574,23 529,24" /><polygon fill="url(#gradient_1)" points="529,24 571,37 528,121" /><polygon fill="#C1C7BC" points="528,121 582,143 538,151" /><polygon fill="url(#gradient_6)" points="538,151 571,185 519,188" /><polygon fill="#D1D7CC" points="519,188 570,197 519,281" /><polygon fill="#5E6377" points="519,281 576,305 541,348" /><polygon fill="url(#gradient_3)" points="541,348 573,365 540,394" /><polygon fill="url(#gradient_1)" points="540,394 568,400 518,411" /><polygon fill="#DDDDDD" points="518,411 582,455 533,479" /><polygon fill="url(#gradient_5)" points="533,479 563,482 531,487" /><polygon fill="#5E6377" points="531,487 558,487 534,494" /><polygon fill="url(#gradient_2)" points="534,494 576,534 539,571" /><polygon fill="url(#gradient_1)" points="493,0 569,0 525,0" /><polygon fill="#FFFFFF" points="500,600 565,600 539,571" /><polygon fill="url(#gradient_8)" points="569,0 624,4 574,23" /><polygon fill="url(#gradient_2)" points="574,23 609,33 571,37" /><polygon fill="url(#gradient_1)" points="571,37 613,53 582,143" /><polygon fill="#C9CDDF" points="582,143 600,181 571,185" /><polygon fill="url(#gradient_0)" points="571,185 618,193 570,197" /><polygon fill="#C9CDDF" points="570,197 607,207 576,305" /><polygon fill="url(#gradient_1)" points="576,305 608,358 573,365" /><polygon fill="#C0C0C0" points="573,365 621,392 568,400" /><polygon fill="url(#gradient_2)" points="568,400 620,451 582,455" /><polygon fill="#C1C7BC" points="582,455 611,481 563,482" /><polygon fill="#CBD3D2" points="563,482 623,484 558,487" /><polygon fill="#C0C0C0" points="558,487 602,507 576,534" /><polygon fill="url(#gradient_8)" points="576,534 603,535 565,600" /><polygon fill="url(#gradient_1)" points="624,4 574,23 609,33" /><polygon fill="#D1D7CC" points="609,33 571,37 613,53" /><polygon fill="#FFFFFF" points="613,53 582,143 600,181" /><polygon fill="#5E6377" points="600,181 571,185 618,193" /><polygon fill="#5E6377" points="618,193 570,197 607,207" /><polygon fill="#C0C0C0" points="607,207 576,305 608,358" /><polygon fill="#7E8397" points="608,358 573,365 621,392" /><polygon fill="#DBE3E2" points="621,392 568,400 620,451" /><polygon fill="#C1C7BC" points="620,451 582,455 611,481" /><polygon fill="#C7CBDE" points="611,481 563,482 623,484" /><polygon fill="#DDDDDD" points="623,484 558,487 602,507" /><polygon fill="url(#gradient_7)" points="602,507 576,534 603,535" /><polygon fill="url(#gradient_0)" points="663,0 624,4 655,27" /><polygon fill="#CBD3D2" points="655,27 609,33 642,50" /><polygon fill="#FFFFFF" points="642,50 613,53 654,162" /><polygon fill="url(#gradient_2)" points="654,162 600,181 662,189" /><polygon fill="url(#gradient_4)" points="662,189 618,193 663,206" /><polygon fill="#C7CBDE" points="663,206 607,207 650,231" /><polygon fill="url(#gradient_1)" points="650,231 608,358 650,359" /><polygon fill="url(#gradient_9)" points="650,359 621,392 650,405" /><polygon fill="#7E8397" points="650,405 620,451 647,475" /><polygon fill="url(#gradient_1)" points="647,475 611,481 660,482" /><polygon fill="#C0C0C0" points="660,482 623,484 643,498" /><polygon fill="#DBE3E2" points="643,498 602,507 664,517" /><polygon fill="url(#gradient_6)" points="664,517 603,535 652,600" /><polygon fill="#C7CBDE" points="624,4 655,27 609,33" /><polygon fill="#5E6377" points="609,33 642,50 613,53" /><polygon fill="#FFFFFF" points="613,53 654,162 600,181" /><polygon fill="url(#gradient_6)" points="600,181 662,189 618,193" /><polygon fill="#C9CDDF" points="618,193 663,206 607,207" /><polygon fill="#C1C7BC" points="607,207 650,231 608,358" /><polygon fill="#FFFFFF" points="608,358 650,359 621,392" /><polygon fill="url(#gradient_6)" points="621,392 650,405 620,451" /><polygon fill="#C0C0C0" points="620,451 647,475 611,481" /><polygon fill="url(#gradient_4)" points="611,481 660,482 623,484" /><polygon fill="#C0C0C0" points="623,484 643,498 602,507" /><polygon fill="#C1C7BC" points="602,507 664,517 603,535" /><polygon fill="url(#gradient_5)" points="569,0 663,0 624,4" /><polygon fill="url(#gradient_0)" points="565,600 652,600 603,535" /><polygon fill="url(#gradient_2)" points="663,0 702,6 655,27" /><polygon fill="#C7CBDE" points="655,27 702,36 642,50" /><polygon fill="#DDDDDD" points="642,50 702,68 654,162" /><polygon fill="url(#gradient_6)" points="654,162 705,167 662,189" /><polygon fill="#D1D7CC" points="662,189 701,202 663,206" /><polygon fill="url(#gradient_5)" points="663,206 682,211 650,231" /><polygon fill="#DDDDDD" points="650,231 693,263 650,359" /><polygon fill="#C7CBDE" points="650,359 700,362 650,405" /><polygon fill="#C0C0C0" points="650,405 691,421 647,475" /><polygon fill="url(#gradient_4)" points="647,475 699,478 660,482" /><polygon fill="#DBE3E2" points="660,482 687,483 643,498" /><polygon fill="url(#gradient_2)" points="643,498 701,510 664,517" /><polygon fill="url(#gradient_7)" points="664,517 687,582 652,600" /><polygon fill="url(#gradient_2)" points="702,6 655,27 702,36" /><polygon fill="url(#gradient_2)" points="702,36 642,50 702,68" /><polygon fill="#CBD3D2" points="702,68 654,162 705,167" /><polygon fill="#C0C0C0" points="705,167 662,189 701,202" /><polygon fill="url(#gradient_7)" points="701,202 663,206 682,211" /><polygon fill="#5E6377" points="682,211 650,231 693,263" /><polygon fill="url(#gradient_1)" points="693,263 650,359 700,362" /><polygon fill="#C0C0C0" points="700,362 650,405 691,421" /><polygon fill="#DBE3E2" points="691,421 647,475 699,478" /><polygon fill="url(#gradient_4)" points="699,478 660,482 687,483" /><polygon fill="#C7CBDE" points="687,483 643,498 701,510" /><polygon fill="#D1D7CC" points="701,510 664,517 687,582" /><polygon fill="url(#gradient_4)" points="738,0 702,6 733,26" /><polygon fill="url(#gradient_1)" points="733,26 702,36 727,58" /><polygon fill="url(#gradient_8)" points="727,58 702,68 724,86" /><polygon fill="#C0C0C0" points="724,86 705,167 726,181" /><polygon fill="#C7CBDE" points="726,181 701,202 745,203" /><polygon fill="url(#gradient_6)" points="745,203 682,211 725,254" /><polygon fill="#5E6377" points="725,254 693,263 727,352" /><polygon fill="url(#gradient_7)" points="727,352 700,362 732,408" /><polygon fill="#C0C0C0" points="732,408 691,421 733,442" /><polygon fill="#5E6377" points="733,442 699,478 745,482" /><polygon fill="#DDDDDD" points="745,482 687,483 737,505" /><polygon fill="url(#gradient_8)" points="737,505 701,510 730,540" /><polygon fill="#C0C0C0" points="730,540 687,582 733,600" /><polygon fill="url(#gradient_3)" points="702,6 733,26 702,36" /><polygon fill="#D1D7CC" points="702,36 727,58 702,68" /><polygon fill="#DDDDDD" points="702,68 724,86 705,167" /><polygon fill="#C0C0C0" points="705,167 726,181 701,202" /><polygon fill="#DBE3E2" points="701,202 745,203 682,211" /><polygon fill="#DBE3E2" points="682,211 725,254 693,263" /><polygon fill="#C0C0C0" points="693,263 727,352 700,362" /><polygon fill="#C1C7BC" points="700,362 732,408 691,421" /><polygon fill="#C9CDDF" points="691,421 733,442 699,478" /><polygon fill="#DDDDDD" points="699,478 745,482 687,483" /><polygon fill="url(#gradient_0)" points="687,483 737,505 701,510" /><polygon fill="#DDDDDD" points="701,510 730,540 687,582" /><polygon fill="#C9CDDF" points="663,0 738,0 702,6" /><polygon fill="#5E6377" points="652,600 733,600 687,582" /><polygon fill="#C9CDDF" points="738,0 770,22 733,26" /><polygon fill="#CBD3D2" points="733,26 778,30 727,58" /><polygon fill="#CBD3D2" points="727,58 766,84 724,86" /><polygon fill="#C9CDDF" points="724,86 777,160 726,181" /><polygon fill="url(#gradient_0)" points="726,181 777,199 745,203" /><polygon fill="#C9CDDF" points="745,203 788,234 725,254" /><polygon fill="#C0C0C0" points="725,254 787,319 727,352" /><polygon fill="#C7CBDE" points="727,352 787,360 732,408" /><polygon fill="url(#gradient_3)" points="732,408 775,409 733,442" /><polygon fill="#7E8397" points="733,442 772,471 745,482" /><polygon fill="#C7CBDE" points="745,482 769,486 737,505" /><polygon fill="url(#gradient_7)" points="737,505 779,507 730,540" /><polygon fill="#5E6377" points="730,540 786,540 733,600" /><polygon fill="#C7CBDE" points="770,22 733,26 778,30" /><polygon fill="#DDDDDD" points="778,30 727,58 766,84" /><polygon fill="#5E6377" points="766,84 724,86 777,160" /><polygon fill="#5E6377" points="777,160 726,181 777,199" /><polygon fill="#FFFFFF" points="777,199 745,203 788,234" /><polygon fill="#D1D7CC" points="788,234 725,254 787,319" /><polygon fill="#CBD3D2" points="787,319 727,352 787,360" /><polygon fill="url(#gradient_5)" points="787,360 732,408 775,409" /><polygon fill="#DDDDDD" points="775,409 733,442 772,471" /><polygon fill="#C9CDDF" points="772,471 745,482 769,486" /><polygon fill="url(#gradient_3)" points="769,486 737,505 779,507" /><polygon fill="#C0C0C0" points="779,507 730,540 786,540" /><polygon fill="url(#gradient_4)" points="809,0 770,22 811,23" /><polygon fill="#DDDDDD" points="811,23 778,30 809,57" /><polygon fill="url(#gradient_4)" points="809,57 766,84 831,139" /><polygon fill="url(#gradient_8)" points="831,139 777,160 830,163" /><polygon fill="#7E8397" points="830,163 777,199 825,212" /><polygon fill="#FFFFFF" points="825,212 788,234 819,237" /><polygon fill="url(#gradient_8)" points="819,237 787,319 830,347" /><polygon fill="url(#gradient_5)" points="830,347 787,360 822,396" /><polygon fill="url(#gradient_8)" points="822,396 775,409 826,434" /><polygon fill="#C1C7BC" points="826,434 772,471 811,484" /><polygon fill="url(#gradient_8)" points="811,484 769,486 820,504" /><polygon fill="url(#gradient_8)" points="820,504 779,507 828,535" /><polygon fill="#DDDDDD" points="828,535 786,540 814,600" /><polygon fill="#DBE3E2" points="770,22 811,23 778,30" /><polygon fill="#DDDDDD" points="778,30 809,57 766,84" /><polygon fill="#C1C7BC" points="766,84 831,139 777,160" /><polygon fill="#5E6377" points="777,160 830,163 777,199" /><polygon fill="#C0C0C0" points="777,199 825,212 788,234" /><polygon fill="#C0C0C0" points="788,234 819,237 787,319" /><polygon fill="url(#gradient_6)" points="787,319 830,347 787,360" /><polygon fill="#5E6377" points="787,360 822,396 775,409" /><polygon fill="#CBD3D2" points="775,409 826,434 772,471" /><polygon fill="#C1C7BC" points="772,471 811,484 769,486" /><polygon fill="url(#gradient_7)" points="769,486 820,504 779,507" /><polygon fill="#DDDDDD" points="779,507 828,535 786,540" /><polygon fill="url(#gradient_4)" points="738,0 809,0 770,22" /><polygon fill="url(#gradient_8)" points="733,600 814,600 786,540" /><polygon fill="url(#gradient_4)" points="809,0 850,2 811,23" /><polygon fill="url(#gradient_9)" points="811,23 869,47 809,57" /><polygon fill="url(#gradient_1)" points="809,57 856,102 831,139" /><polygon fill="url(#gradient_5)" points="831,139 866,140 830,163" /><polygon fill="url(#gradient_3)" points="830,163 857,177 825,212" /><polygon fill="url(#gradient_2)" points="825,212 874,233 819,237" /><polygon fill="#C9CDDF" points="819,237 862,280 830,347" /><polygon fill="#C1C7BC" points="830,347 858,385 822,396" /><polygon fill="#DDDDDD" points="822,396 857,403 826,434" /><polygon fill="url(#gradient_7)" points="826,434 859,434 811,484" /><polygon fill="url(#gradient_0)" points="811,484 857,493 820,504" /><polygon fill="#7E8397" points="820,504 864,529 828,535" /><polygon fill="#C7CBDE" points="828,535 874,585 814,600" /><polygon fill="#C1C7BC" points="850,2 811,23 869,47" /><polygon fill="#C0C0C0" points="869,47 809,57 856,102" /><polygon fill="#7E8397" points="856,102 831,139 866,140" /><polygon fill="#C1C7BC" points="866,140 830,163 857,177" /><polygon fill="url(#gradient_3)" points="857,177 825,212 874,233" /><polygon fill="url(#gradient_0)" points="874,233 819,237 862,280" /><polygon fill="#D1D7CC" points="862,280 830,347 858,385" /><polygon fill="url(#gradient_5)" points="858,385 822,396 857,403" /><polygon fill="url(#gradient_7)" points="857,403 826,434 859,434" /><polygon fill="#C1C7BC" points="859,434 811,484 857,493" /><polygon fill="url(#gradient_6)" points="857,493 820,504 864,529" /><polygon fill="url(#gradient_4)" points="864,529 828,535 874,585" /><polygon fill="#C7CBDE" points="907,0 850,2 891,2" /><polygon fill="#DDDDDD" points="891,2 869,47 894,58" /><polygon fill="url(#gradient_3)" points="894,58 856,102 900,134" /><polygon fill="#DDDDDD" points="900,134 866,140 915,176" /><polygon fill="#FFFFFF" points="915,176 857,177 907,186" /><polygon fill="#CBD3D2" points="907,186 874,233 909,252" /><polygon fill="url(#gradient_9)" points="909,252 862,280 905,291" /><polygon fill="url(#gradient_9)" points="905,291 858,385 913,390" /><polygon fill="url(#gradient_3)" points="913,390 857,403 916,431" /><polygon fill="#DDDDDD" points="916,431 859,434 900,488" /><polygon fill="url(#gradient_4)" points="900,488 857,493 912,515" /><polygon fill="url(#gradient_5)" points="912,515 864,529 907,568" /><polygon fill="#C1C7BC" points="907,568 874,585 901,600" /><polygon fill="#C0C0C0" points="850,2 891,2 869,47" /><polygon fill="#CBD3D2" points="869,47 894,58 856,102" /><polygon fill="url(#gradient_4)" points="856,102 900,134 866,140" /><polygon fill="url(#gradient_4)" points="866,140 915,176 857,177" /><polygon fill="url(#gradient_8)" points="857,177 907,186 874,233" /><polygon fill="url(#gradient_6)" points="874,233 909,252 862,280" /><polygon fill="#C7CBDE" points="862,280 905,291 858,385" /><polygon fill="#5E6377" points="858,385 913,390 857,403" /><polygon fill="#7E8397" points="857,403 916,431 859,434" /><polygon fill="#C0C0C0" points="859,434 900,488 857,493" /><polygon fill="#7E8397" points="857,493 912,515 864,529" /><polygon fill="#C0C0C0" points="864,529 907,568 874,585" /><polygon fill="#DDDDDD" points="809,0 907,0 850,2" /><polygon fill="#C9CDDF" points="814,600 901,600 874,585" /><polygon fill="#DDDDDD" points="907,0 942,1 891,2" /><polygon fill="url(#gradient_6)" points="891,2 941,22 894,58" /><polygon fill="#FFFFFF" points="894,58 938,133 900,134" /><polygon fill="url(#gradient_6)" points="900,134 936,161 915,176" /><polygon fill="url(#gradient_6)" points="915,176 935,185 907,186" /><polygon fill="#DBE3E2" points="907,186 937,196 909,252" /><polygon fill="#C0C0C0" points="909,252 934,267 905,291" /><polygon fill="url(#gradient_9)" points="905,291 935,385 913,390" /><polygon fill="url(#gradient_4)" points="913,390 939,421 916,431" /><polygon fill="url(#gradient_8)" points="916,431 958,462 900,488" /><polygon fill="url(#gradient_7)" points="900,488 937,491 912,515" /><polygon fill="url(#gradient_9)" points="912,515 947,516 907,568" /><polygon fill="#D1D7CC" points="907,568 943,582 901,600" /><polygon fill="url(#gradient_2)" points="942,1 891,2 941,22" /><polygon fill="url(#gradient_5)" points="941,22 894,58 938,133" /><polygon fill="#C1C7BC" points="938,133 900,134 936,161" /><polygon fill="#C9CDDF" points="936,161 915,176 935,185" /><polygon fill="url(#gradient_0)" points="935,185 907,186 937,196" /><polygon fill="url(#gradient_3)" points="937,196 909,252 934,267" /><polygon fill="#7E8397" points="934,267 905,291 935,385" /><polygon fill="#CBD3D2" points="935,385 913,390 939,421" /><polygon fill="#C7CBDE" points="939,421 916,431 958,462" /><polygon fill="#CBD3D2" points="958,462 900,488 937,491" /><polygon fill="#DBE3E2" points="937,491 912,515 947,516" /><polygon fill="url(#gradient_1)" points="947,516 907,568 943,582" /><polygon fill="#C7CBDE" points="1000,0 942,1 1000,8" /><polygon fill="#DDDDDD" points="1000,8 941,22 1000,28" /><polygon fill="#C0C0C0" points="1000,28 938,133 1000,144" /><polygon fill="#C1C7BC" points="1000,144 936,161 1000,170" /><polygon fill="url(#gradient_0)" points="1000,170 935,185 1000,189" /><polygon fill="url(#gradient_7)" points="1000,189 937,196 1000,250" /><polygon fill="url(#gradient_2)" points="1000,250 934,267 1000,346" /><polygon fill="#C1C7BC" points="1000,346 935,385 1000,387" /><polygon fill="url(#gradient_8)" points="1000,387 939,421 1000,450" /><polygon fill="#5E6377" points="1000,450 958,462 1000,474" /><polygon fill="url(#gradient_7)" points="1000,474 937,491 1000,509" /><polygon fill="#DDDDDD" points="1000,509 947,516 1000,552" /><polygon fill="url(#gradient_7)" points="1000,552 943,582 1000,600" /><polygon fill="url(#gradient_4)" points="942,1 1000,8 941,22" /><polygon fill="#7E8397" points="941,22 1000,28 938,133" /><polygon fill="url(#gradient_8)" points="938,133 1000,144 936,161" /><polygon fill="url(#gradient_6)" points="936,161 1000,170 935,185" /><polygon fill="url(#gradient_4)" points="935,185 1000,189 937,196" /><polygon fill="url(#gradient_7)" points="937,196 1000,250 934,267" /><polygon fill="url(#gradient_2)" points="934,267 1000,346 935,385" /><polygon fill="#DBE3E2" points="935,385 1000,387 939,421" /><polygon fill="#5E6377" points="939,421 1000,450 958,462" /><polygon fill="url(#gradient_6)" points="958,462 1000,474 937,491" /><polygon fill="#5E6377" points="937,491 1000,509 947,516" /><polygon fill="url(#gradient_7)" points="947,516 1000,552 943,582" /><polygon fill="#FFFFFF" points="907,0 1000,0 942,1" /><polygon fill="#C1C7BC" points="901,600 1000,600 943,582" /></svg>