<?xml version="1.0" encoding="utf-8" ?>
<svg baseProfile="full" height="100%" version="1.1" width="100%" xmlns="http://www.w3.org/2000/svg" xmlns:ev="http://www.w3.org/2001/xml-events" xmlns:xlink="http://www.w3.org/1999/xlink"><defs /><defs id="gradients"><linearGradient id="gradient_0" x1="0" x2="0" y1="0" y2="1"><stop offset="0.0" stop-color="#5BF993" /><stop offset="1.0" stop-color="#11D06C" /></linearGradient><linearGradient id="gradient_1" x1="0" x2="1" y1="0" y2="0"><stop offset="0.0" stop-color="#0FDF69" /><stop offset="1.0" stop-color="#09DF69" /></linearGradient><linearGradient id="gradient_2" x1="0" x2="0" y1="0" y2="1"><stop offset="0.0" stop-color="#13E07C" /><stop offset="1.0" stop-color="#5BFE83" /></linearGradient><linearGradient id="gradient_3" x1="0" x2="0" y1="0" y2="1"><stop offset="0.0" stop-color="#5BFE83" /><stop offset="1.0" stop-color="#14CD59" /></linearGradient><linearGradient id="gradient_4" x1="0" x2="1" y1="0" y2="1"><stop offset="0.0" stop-color="#34F3CD" /><stop offset="1.0" stop-color="#1FBFAB" /></linearGradient><linearGradient id="gradient_5" x1="0" x2="1" y1="0" y2="1"><stop offset="0.0" stop-color="#10D5C2" /><stop offset="1.0" stop-color="#34F3D5" /></linearGradient><linearGradient id="gradient_6" x1="0" x2="0" y1="0" y2="1"><stop offset="0.0" stop-color="#1FBFAB" /><stop offset="1.0" stop-color="#34F3DD" /></linearGradient><linearGradient id="gradient_7" x1="0" x2="1" y1="0" y2="0"><stop offset="0.0" stop-color="#09DF69" /><stop offset="1.0" stop-color="#34F3CD" /></linearGradient><linearGradient id="gradient_8" x1="0" x2="0" y1="0" y2="1"><stop offset="0.0" stop-color="#20D5C2" /><stop offset="1.0" stop-color="#1FBFAB" /></linearGradient><linearGradient id="gradient_9" x1="0" x2="0" y1="0" y2="1"><stop offset="0.0" stop-color="#20D5C2" /><stop offset="1.0" stop-color="#10D5C2" /></linearGradient></defs><polygon fill="#11D06C" points="0,0 38,45 0,46" /><polygon fill="url(#gradient_5)" points="0,46 40,62 0,92" /><polygon fill="#5BF993" points="0,92 41,102 0,138" /><polygon fill="url(#gradient_3)" points="0,138 39,151 0,184" /><polygon fill="#20D5C2" points="0,184 29,209 0,230" /><polygon fill="#13E07C" points="0,230 25,231 0,276" /><polygon fill="#34F3DD" points="0,276 17,317 0,323" /><polygon fill="#1CB79F" points="0,323 24,341 0,369" /><polygon fill="#34F3C2" points="0,369 42,377 0,415" /><polygon fill="url(#gradient_0)" points="0,415 21,440 0,461" /><polygon fill="url(#gradient_7)" points="0,461 20,481 0,507" /><polygon fill="url(#gradient_6)" points="0,507 29,551 0,553" /><polygon fill="#11D06C" points="0,553 27,559 0,600" /><polygon fill="url(#gradient_2)" points="38,45 0,46 40,62" /><polygon fill="#34F3C2" points="40,62 0,92 41,102" /><polygon fill="#34F3C2" points="41,102 0,138 39,151" /><polygon fill="#1FBFAB" points="39,151 0,184 29,209" /><polygon fill="url(#gradient_8)" points="29,209 0,230 25,231" /><polygon fill="url(#gradient_2)" points="25,231 0,276 17,317" /><polygon fill="#20D5C2" points="17,317 0,323 24,341" /><polygon fill="url(#gradient_6)" points="24,341 0,369 42,377" /><polygon fill="url(#gradient_7)" points="42,377 0,415 21,440" /><polygon fill="#34F3C2" points="21,440 0,461 20,481" /><polygon fill="#34F3D5" points="20,481 0,507 29,551" /><polygon fill="#5BFE83" points="29,551 0,553 27,559" /><polygon fill="#0FDF69" points="82,0 38,45 79,48" /><polygon fill="#34F3C2" points="79,48 40,62 63,82" /><polygon fill="url(#gradient_5)" points="63,82 41,102 62,140" /><polygon fill="#0FDF69" points="62,140 39,151 83,190" /><polygon fill="#F0FFFC" points="83,190 29,209 61,219" /><polygon fill="url(#gradient_6)" points="61,219 25,231 77,282" /><polygon fill="#10D5C2" points="77,282 17,317 77,340" /><polygon fill="url(#gradient_9)" points="77,340 24,341 72,351" /><polygon fill="#14CD59" points="72,351 42,377 59,400" /><polygon fill="#34F3DD" points="59,400 21,440 66,454" /><polygon fill="url(#gradient_2)" points="66,454 20,481 68,513" /><polygon fill="#F0FFFC" points="68,513 29,551 61,554" /><polygon fill="#34F3DD" points="61,554 27,559 70,600" /><polygon fill="#0FDF69" points="38,45 79,48 40,62" /><polygon fill="#F0FFFC" points="40,62 63,82 41,102" /><polygon fill="#34F3D5" points="41,102 62,140 39,151" /><polygon fill="#13E07C" points="39,151 83,190 29,209" /><polygon fill="#F0FFFC" points="29,209 61,219 25,231" /><polygon fill="url(#gradient_4)" points="25,231 77,282 17,317" /><polygon fill="#14CD59" points="17,317 77,340 24,341" /><polygon fill="#20D5C2" points="24,341 72,351 42,377" /><polygon fill="#14CD59" points="42,377 59,400 21,440" /><polygon fill="#09DF69" points="21,440 66,454 20,481" /><polygon fill="#34F3CD" points="20,481 68,513 29,551" /><polygon fill="#5BF993" points="29,551 61,554 27,559" /><polygon fill="url(#gradient_7)" points="0,0 82,0 38,45" /><polygon fill="#14CD59" points="0,600 70,600 27,559" /><polygon fill="#34F3D5" points="82,0 122,20 79,48" /><polygon fill="#14CD59" points="79,48 100,70 63,82" /><polygon fill="url(#gradient_7)" points="63,82 125,132 62,140" /><polygon fill="url(#gradient_9)" points="62,140 105,174 83,190" /><polygon fill="url(#gradient_1)" points="83,190 102,197 61,219" /><polygon fill="url(#gradient_6)" points="61,219 116,257 77,282" /><polygon fill="url(#gradient_6)" points="77,282 121,296 77,340" /><polygon fill="url(#gradient_0)" points="77,340 117,346 72,351" /><polygon fill="#1FBFAB" points="72,351 114,383 59,400" /><polygon fill="#0FDF69" points="59,400 115,445 66,454" /><polygon fill="url(#gradient_2)" points="66,454 100,500 68,513" /><polygon fill="#20D5C2" points="68,513 123,540 61,554" /><polygon fill="#5BF993" points="61,554 110,554 70,600" /><polygon fill="url(#gradient_6)" points="122,20 79,48 100,70" /><polygon fill="url(#gradient_1)" points="100,70 63,82 125,132" /><polygon fill="#13E07C" points="125,132 62,140 105,174" /><polygon fill="url(#gradient_6)" points="105,174 83,190 102,197" /><polygon fill="#09DF69" points="102,197 61,219 116,257" /><polygon fill="#1FBFAB" points="116,257 77,282 121,296" /><polygon fill="url(#gradient_1)" points="121,296 77,340 117,346" /><polygon fill="#11D06C" points="117,346 72,351 114,383" /><polygon fill="url(#gradient_5)" points="114,383 59,400 115,445" /><polygon fill="url(#gradient_3)" points="115,445 66,454 100,500" /><polygon fill="#10D5C2" points="100,500 68,513 123,540" /><polygon fill="url(#gradient_9)" points="123,540 61,554 110,554" /><polygon fill="url(#gradient_8)" points="158,0 122,20 146,29" /><polygon fill="url(#gradient_4)" points="146,29 100,70 149,97" /><polygon fill="url(#gradient_2)" points="149,97 125,132 164,149" /><polygon fill="url(#gradient_7)" points="164,149 105,174 146,191" /><polygon fill="#14CD59" points="146,191 102,197 163,243" /><polygon fill="url(#gradient_0)" points="163,243 116,257 145,277" /><polygon fill="#14CD59" points="145,277 121,296 160,332" /><polygon fill="#34F3D5" points="160,332 117,346 164,353" /><polygon fill="#5BFE83" points="164,353 114,383 149,404" /><polygon fill="url(#gradient_4)" points="149,404 115,445 168,452" /><polygon fill="url(#gradient_8)" points="168,452 100,500 147,519" /><polygon fill="url(#gradient_7)" points="147,519 123,540 163,548" /><polygon fill="#1CB79F" points="163,548 110,554 168,600" /><polygon fill="url(#gradient_4)" points="122,20 146,29 100,70" /><polygon fill="#1FBFAB" points="100,70 149,97 125,132" /><polygon fill="url(#gradient_5)" points="125,132 164,149 105,174" /><polygon fill="#34F3C2" points="105,174 146,191 102,197" /><polygon fill="#5BFE83" points="102,197 163,243 116,257" /><polygon fill="#09DF69" points="116,257 145,277 121,296" /><polygon fill="url(#gradient_3)" points="121,296 160,332 117,346" /><polygon fill="#10D5C2" points="117,346 164,353 114,383" /><polygon fill="url(#gradient_0)" points="114,383 149,404 115,445" /><polygon fill="url(#gradient_2)" points="115,445 168,452 100,500" /><polygon fill="url(#gradient_0)" points="100,500 147,519 123,540" /><polygon fill="url(#gradient_1)" points="123,540 163,548 110,554" /><polygon fill="#F0FFFC" points="82,0 158,0 122,20" /><polygon fill="#10D5C2" points="70,600 168,600 110,554" /><polygon fill="url(#gradient_8)" points="158,0 211,28 146,29" /><polygon fill="#14CD59" points="146,29 194,80 149,97" /><polygon fill="#5BF993" points="149,97 192,125 164,149" /><polygon fill="#09DF69" points="164,149 186,182 146,191" /><polygon fill="url(#gradient_6)" points="146,191 197,196 163,243" /><polygon fill="#F0FFFC" points="163,243 195,259 145,277" /><polygon fill="#F0FFFC" points="145,277 192,291 160,332" /><polygon fill="url(#gradient_3)" points="160,332 201,340 164,353" /><polygon fill="#34F3CD" points="164,353 202,362 149,404" /><polygon fill="url(#gradient_3)" points="149,404 198,445 168,452" /><polygon fill="#34F3CD" points="168,452 203,455 147,519" /><polygon fill="url(#gradient_7)" points="147,519 190,540 163,548" /><polygon fill="#1CB79F" points="163,548 201,551 168,600" /><polygon fill="#20D5C2" points="211,28 146,29 194,80" /><polygon fill="url(#gradient_6)" points="194,80 149,97 192,125" /><polygon fill="url(#gradient_2)" points="192,125 164,149 186,182" /><polygon fill="#34F3CD" points="186,182 146,191 197,196" /><polygon fill="#14CD59" points="197,196 163,243 195,259" /><polygon fill="#20D5C2" points="195,259 145,277 192,291" /><polygon fill="url(#gradient_8)" points="192,291 160,332 201,340" /><polygon fill="#13E07C" points="201,340 164,353 202,362" /><polygon fill="#20D5C2" points="202,362 149,404 198,445" /><polygon fill="#34F3CD" points="198,445 168,452 203,455" /><polygon fill="url(#gradient_9)" points="203,455 147,519 190,540" /><polygon fill="#20D5C2" points="190,540 163,548 201,551" /><polygon fill="url(#gradient_1)" points="243,0 211,28 229,36" /><polygon fill="#5BFE83" points="229,36 194,80 249,115" /><polygon fill="#34F3C2" points="249,115 192,125 228,129" /><polygon fill="#1FBFAB" points="228,129 186,182 250,194" /><polygon fill="#11D06C" points="250,194 197,196 250,241" /><polygon fill="url(#gradient_4)" points="250,241 195,259 247,266" /><polygon fill="#34F3CD" points="247,266 192,291 251,301" /><polygon fill="#5BF993" points="251,301 201,340 254,347" /><polygon fill="#34F3C2" points="254,347 202,362 240,409" /><polygon fill="url(#gradient_8)" points="240,409 198,445 232,446" /><polygon fill="url(#gradient_0)" points="232,446 203,455 239,469" /><polygon fill="url(#gradient_8)" points="239,469 190,540 239,544" /><polygon fill="#0FDF69" points="239,544 201,551 249,600" /><polygon fill="#34F3C2" points="211,28 229,36 194,80" /><polygon fill="#14CD59" points="194,80 249,115 192,125" /><polygon fill="url(#gradient_7)" points="192,125 228,129 186,182" /><polygon fill="#11D06C" points="186,182 250,194 197,196" /><polygon fill="url(#gradient_2)" points="197,196 250,241 195,259" /><polygon fill="#0FDF69" points="195,259 247,266 192,291" /><polygon fill="#09DF69" points="192,291 251,301 201,340" /><polygon fill="url(#gradient_6)" points="201,340 254,347 202,362" /><polygon fill="#14CD59" points="202,362 240,409 198,445" /><polygon fill="url(#gradient_7)" points="198,445 232,446 203,455" /><polygon fill="#34F3CD" points="203,455 239,469 190,540" /><polygon fill="url(#gradient_4)" points="190,540 239,544 201,551" /><polygon fill="url(#gradient_9)" points="158,0 243,0 211,28" /><polygon fill="url(#gradient_2)" points="168,600 249,600 201,551" /><polygon fill="#1CB79F" points="243,0 282,7 229,36" /><polygon fill="#34F3D5" points="229,36 297,40 249,115" /><polygon fill="url(#gradient_7)" points="249,115 284,119 228,129" /><polygon fill="#10D5C2" points="228,129 275,159 250,194" /><polygon fill="#34F3DD" points="250,194 288,235 250,241" /><polygon fill="url(#gradient_1)" points="250,241 277,251 247,266" /><polygon fill="#5BFE83" points="247,266 271,274 251,301" /><polygon fill="#34F3DD" points="251,301 297,330 254,347" /><polygon fill="url(#gradient_8)" points="254,347 295,408 240,409" /><polygon fill="url(#gradient_1)" points="240,409 288,412 232,446" /><polygon fill="#1FBFAB" points="232,446 291,455 239,469" /><polygon fill="url(#gradient_1)" points="239,469 275,523 239,544" /><polygon fill="#1CB79F" points="239,544 277,554 249,600" /><polygon fill="url(#gradient_1)" points="282,7 229,36 297,40" /><polygon fill="#14CD59" points="297,40 249,115 284,119" /><polygon fill="#20D5C2" points="284,119 228,129 275,159" /><polygon fill="#5BF993" points="275,159 250,194 288,235" /><polygon fill="#34F3DD" points="288,235 250,241 277,251" /><polygon fill="#09DF69" points="277,251 247,266 271,274" /><polygon fill="url(#gradient_6)" points="271,274 251,301 297,330" /><polygon fill="#10D5C2" points="297,330 254,347 295,408" /><polygon fill="url(#gradient_1)" points="295,408 240,409 288,412" /><polygon fill="url(#gradient_3)" points="288,412 232,446 291,455" /><polygon fill="#10D5C2" points="291,455 239,469 275,523" /><polygon fill="url(#gradient_5)" points="275,523 239,544 277,554" /><polygon fill="#34F3D5" points="317,0 282,7 317,34" /><polygon fill="#34F3D5" points="317,34 297,40 317,86" /><polygon fill="#20D5C2" points="317,86 284,119 323,151" /><polygon fill="url(#gradient_8)" points="323,151 275,159 330,191" /><polygon fill="url(#gradient_1)" points="330,191 288,235 319,242" /><polygon fill="#1CB79F" points="319,242 277,251 322,273" /><polygon fill="url(#gradient_8)" points="322,273 271,274 337,284" /><polygon fill="#09DF69" points="337,284 297,330 321,366" /><polygon fill="#34F3CD" points="321,366 295,408 331,410" /><polygon fill="#34F3CD" points="331,410 288,412 321,448" /><polygon fill="url(#gradient_7)" points="321,448 291,455 325,509" /><polygon fill="url(#gradient_7)" points="325,509 275,523 335,551" /><polygon fill="url(#gradient_6)" points="335,551 277,554 318,600" /><polygon fill="#1CB79F" points="282,7 317,34 297,40" /><polygon fill="url(#gradient_3)" points="297,40 317,86 284,119" /><polygon fill="#14CD59" points="284,119 323,151 275,159" /><polygon fill="#0FDF69" points="275,159 330,191 288,235" /><polygon fill="url(#gradient_9)" points="288,235 319,242 277,251" /><polygon fill="url(#gradient_3)" points="277,251 322,273 271,274" /><polygon fill="url(#gradient_7)" points="271,274 337,284 297,330" /><polygon fill="url(#gradient_1)" points="297,330 321,366 295,408" /><polygon fill="url(#gradient_5)" points="295,408 331,410 288,412" /><polygon fill="#1CB79F" points="288,412 321,448 291,455" /><polygon fill="url(#gradient_5)" points="291,455 325,509 275,523" /><polygon fill="#1CB79F" points="275,523 335,551 277,554" /><polygon fill="url(#gradient_8)" points="243,0 317,0 282,7" /><polygon fill="#34F3D5" points="249,600 318,600 277,554" /><polygon fill="#11D06C" points="317,0 369,20 317,34" /><polygon fill="#20D5C2" points="317,34 357,68 317,86" /><polygon fill="#13E07C" points="317,86 368,149 323,151" /><polygon fill="#09DF69" points="323,151 361,170 330,191" /><polygon fill="url(#gradient_4)" points="330,191 368,241 319,242" /><polygon fill="url(#gradient_6)" points="319,242 361,253 322,273" /><polygon fill="url(#gradient_3)" points="322,273 371,279 337,284" /><polygon fill="#11D06C" points="337,284 358,363 321,366" /><polygon fill="#34F3CD" points="321,366 368,388 331,410" /><polygon fill="#5BFE83" points="331,410 365,432 321,448" /><polygon fill="#13E07C" points="321,448 364,501 325,509" /><polygon fill="#13E07C" points="325,509 377,538 335,551" /><polygon fill="#34F3CD" points="335,551 373,574 318,600" /><polygon fill="#34F3CD" points="369,20 317,34 357,68" /><polygon fill="url(#gradient_4)" points="357,68 317,86 368,149" /><polygon fill="url(#gradient_8)" points="368,149 323,151 361,170" /><polygon fill="#10D5C2" points="361,170 330,191 368,241" /><polygon fill="#0FDF69" points="368,241 319,242 361,253" /><polygon fill="url(#gradient_0)" points="361,253 322,273 371,279" /><polygon fill="#5BF993" points="371,279 337,284 358,363" /><polygon fill="#0FDF69" points="358,363 321,366 368,388" /><polygon fill="#10D5C2" points="368,388 331,410 365,432" /><polygon fill="#09DF69" points="365,432 321,448 364,501" /><polygon fill="#0FDF69" points="364,501 325,509 377,538" /><polygon fill="url(#gradient_5)" points="377,538 335,551 373,574" /><polygon fill="url(#gradient_4)" points="417,0 369,20 401,40" /><polygon fill="#0FDF69" points="401,40 357,68 396,144" /><polygon fill="#14CD59" points="396,144 368,149 412,153" /><polygon fill="#34F3DD" points="412,153 361,170 418,239" /><polygon fill="url(#gradient_2)" points="418,239 368,241 396,250" /><polygon fill="#14CD59" points="396,250 361,253 401,272" /><polygon fill="#0FDF69" points="401,272 371,279 415,321" /><polygon fill="#5BF993" points="415,321 358,363 411,385" /><polygon fill="#5BFE83" points="411,385 368,388 406,404" /><polygon fill="#1FBFAB" points="406,404 365,432 403,463" /><polygon fill="#14CD59" points="403,463 364,501 398,522" /><polygon fill="#14CD59" points="398,522 377,538 400,563" /><polygon fill="url(#gradient_2)" points="400,563 373,574 396,600" /><polygon fill="#20D5C2" points="369,20 401,40 357,68" /><polygon fill="url(#gradient_6)" points="357,68 396,144 368,149" /><polygon fill="url(#gradient_7)" points="368,149 412,153 361,170" /><polygon fill="#5BFE83" points="361,170 418,239 368,241" /><polygon fill="#34F3C2" points="368,241 396,250 361,253" /><polygon fill="#34F3D5" points="361,253 401,272 371,279" /><polygon fill="url(#gradient_0)" points="371,279 415,321 358,363" /><polygon fill="url(#gradient_7)" points="358,363 411,385 368,388" /><polygon fill="#0FDF69" points="368,388 406,404 365,432" /><polygon fill="#5BFE83" points="365,432 403,463 364,501" /><polygon fill="#5BF993" points="364,501 398,522 377,538" /><polygon fill="#10D5C2" points="377,538 400,563 373,574" /><polygon fill="#13E07C" points="317,0 417,0 369,20" /><polygon fill="#34F3D5" points="318,600 396,600 373,574" /><polygon fill="url(#gradient_7)" points="417,0 456,9 401,40" /><polygon fill="#20D5C2" points="401,40 458,107 396,144" /><polygon fill="#F0FFFC" points="396,144 454,149 412,153" /><polygon fill="#5BFE83" points="412,153 435,170 418,239" /><polygon fill="#20D5C2" points="418,239 441,240 396,250" /><polygon fill="url(#gradient_4)" points="396,250 435,259 401,272" /><polygon fill="url(#gradient_2)" points="401,272 452,311 415,321" /><polygon fill="#F0FFFC" points="415,321 436,363 411,385" /><polygon fill="#0FDF69" points="411,385 441,389 406,404" /><polygon fill="#34F3C2" points="406,404 437,424 403,463" /><polygon fill="url(#gradient_9)" points="403,463 454,517 398,522" /><polygon fill="#13E07C" points="398,522 450,526 400,563" /><polygon fill="#11D06C" points="400,563 455,570 396,600" /><polygon fill="#34F3CD" points="456,9 401,40 458,107" /><polygon fill="#1CB79F" points="458,107 396,144 454,149" /><polygon fill="url(#gradient_9)" points="454,149 412,153 435,170" /><polygon fill="#1FBFAB" points="435,170 418,239 441,240" /><polygon fill="url(#gradient_8)" points="441,240 396,250 435,259" /><polygon fill="url(#gradient_1)" points="435,259 401,272 452,311" /><polygon fill="#13E07C" points="452,311 415,321 436,363" /><polygon fill="#1FBFAB" points="436,363 411,385 441,389" /><polygon fill="#5BF993" points="441,389 406,404 437,424" /><polygon fill="#1FBFAB" points="437,424 403,463 454,517" /><polygon fill="#20D5C2" points="454,517 398,522 450,526" /><polygon fill="#20D5C2" points="450,526 400,563 455,570" /><polygon fill="url(#gradient_5)" points="490,0 456,9 489,15" /><polygon fill="url(#gradient_2)" points="489,15 458,107 493,145" /><polygon fill="url(#gradient_4)" points="493,145 454,149 475,164" /><polygon fill="#5BF993" points="475,164 435,170 496,239" /><polygon fill="#34F3CD" points="496,239 441,240 497,248" /><polygon fill="#09DF69" points="497,248 435,259 489,298" /><polygon fill="url(#gradient_1)" points="489,298 452,311 491,334" /><polygon fill="url(#gradient_2)" points="491,334 436,363 492,386" /><polygon fill="#5BF993" points="492,386 441,389 488,410" /><polygon fill="#14CD59" points="488,410 437,424 481,478" /><polygon fill="url(#gradient_2)" points="481,478 454,517 500,522" /><polygon fill="url(#gradient_6)" points="500,522 450,526 489,553" /><polygon fill="url(#gradient_1)" points="489,553 455,570 489,600" /><polygon fill="#5BF993" points="456,9 489,15 458,107" /><polygon fill="url(#gradient_0)" points="458,107 493,145 454,149" /><polygon fill="url(#gradient_6)" points="454,149 475,164 435,170" /><polygon fill="#34F3D5" points="435,170 496,239 441,240" /><polygon fill="#34F3CD" points="441,240 497,248 435,259" /><polygon fill="url(#gradient_9)" points="435,259 489,298 452,311" /><polygon fill="url(#gradient_2)" points="452,311 491,334 436,363" /><polygon fill="#13E07C" points="436,363 492,386 441,389" /><polygon fill="#F0FFFC" points="441,389 488,410 437,424" /><polygon fill="#13E07C" points="437,424 481,478 454,517" /><polygon fill="#5BFE83" points="454,517 500,522 450,526" /><polygon fill="url(#gradient_6)" points="450,526 489,553 455,570" /><polygon fill="#09DF69" points="417,0 490,0 456,9" /><polygon fill="url(#gradient_0)" points="396,600 489,600 455,570" /><polygon fill="#20D5C2" points="490,0 530,14 489,15" /><polygon fill="#34F3D5" points="489,15 522,53 493,145" /><polygon fill="#20D5C2" points="493,145 530,148 475,164" /><polygon fill="#34F3D5" points="475,164 524,212 496,239" /><polygon fill="url(#gradient_5)" points="496,239 522,246 497,248" /><polygon fill="url(#gradient_7)" points="497,248 519,293 489,298" /><polygon fill="url(#gradient_7)" points="489,298 543,314 491,334" /><polygon fill="url(#gradient_3)" points="491,334 527,372 492,386" /><polygon fill="url(#gradient_6)" points="492,386 530,393 488,410" /><polygon fill="url(#gradient_7)" points="488,410 529,458 481,478" /><polygon fill="#F0FFFC" points="481,478 519,515 500,522" /><polygon fill="#0FDF69" points="500,522 526,536 489,553" /><polygon fill="#1CB79F" points="489,553 529,571 489,600" /><polygon fill="#5BF993" points="530,14 489,15 522,53" /><polygon fill="#09DF69" points="522,53 493,145 530,148" /><polygon fill="#5BFE83" points="530,148 475,164 524,212" /><polygon fill="url(#gradient_6)" points="524,212 496,239 522,246" /><polygon fill="#5BF993" points="522,246 497,248 519,293" /><polygon fill="url(#gradient_4)" points="519,293 489,298 543,314" /><polygon fill="#20D5C2" points="543,314 491,334 527,372" /><polygon fill="url(#gradient_7)" points="527,372 492,386 530,393" /><polygon fill="url(#gradient_4)" points="530,393 488,410 529,458" /><polygon fill="url(#gradient_7)" points="529,458 481,478 519,515" /><polygon fill="url(#gradient_6)" points="519,515 500,522 526,536" /><polygon fill="#13E07C" points="526,536 489,553 529,571" /><polygon fill="#5BFE83" points="571,0 530,14 577,43" /><polygon fill="url(#gradient_5)" points="577,43 522,53 566,139" /><polygon fill="#5BF993" points="566,139 530,148 567,173" /><polygon fill="#10D5C2" points="567,173 524,212 585,231" /><polygon fill="#5BF993" points="585,231 522,246 567,265" /><polygon fill="#F0FFFC" points="567,265 519,293 577,300" /><polygon fill="url(#gradient_9)" points="577,300 543,314 565,324" /><polygon fill="url(#gradient_5)" points="565,324 527,372 585,372" /><polygon fill="#34F3C2" points="585,372 530,393 570,438" /><polygon fill="#14CD59" points="570,438 529,458 569,497" /><polygon fill="#34F3C2" points="569,497 519,515 586,531" /><polygon fill="url(#gradient_3)" points="586,531 526,536 569,561" /><polygon fill="#10D5C2" points="569,561 529,571 565,600" /><polygon fill="#1FBFAB" points="530,14 577,43 522,53" /><polygon fill="url(#gradient_4)" points="522,53 566,139 530,148" /><polygon fill="#1FBFAB" points="530,148 567,173 524,212" /><polygon fill="#34F3DD" points="524,212 585,231 522,246" /><polygon fill="url(#gradient_6)" points="522,246 567,265 519,293" /><polygon fill="url(#gradient_3)" points="519,293 577,300 543,314" /><polygon fill="#13E07C" points="543,314 565,324 527,372" /><polygon fill="url(#gradient_7)" points="527,372 585,372 530,393" /><polygon fill="#5BF993" points="530,393 570,438 529,458" /><polygon fill="#11D06C" points="529,458 569,497 519,515" /><polygon fill="#11D06C" points="519,515 586,531 526,536" /><polygon fill="#1CB79F" points="526,536 569,561 529,571" /><polygon fill="#F0FFFC" points="490,0 571,0 530,14" /><polygon fill="url(#gradient_6)" points="489,600 565,600 529,571" /><polygon fill="#11D06C" points="571,0 627,28 577,43" /><polygon fill="#34F3DD" points="577,43 613,48 566,139" /><polygon fill="url(#gradient_7)" points="566,139 610,150 567,173" /><polygon fill="#34F3CD" points="567,173 607,210 585,231" /><polygon fill="#0FDF69" points="585,231 610,240 567,265" /><polygon fill="url(#gradient_9)" points="567,265 609,291 577,300" /><polygon fill="url(#gradient_8)" points="577,300 616,304 565,324" /><polygon fill="url(#gradient_0)" points="565,324 614,343 585,372" /><polygon fill="#14CD59" points="585,372 614,423 570,438" /><polygon fill="#5BF993" points="570,438 615,480 569,497" /><polygon fill="#13E07C" points="569,497 612,517 586,531" /><polygon fill="url(#gradient_4)" points="586,531 603,533 569,561" /><polygon fill="url(#gradient_5)" points="569,561 612,576 565,600" /><polygon fill="url(#gradient_2)" points="627,28 577,43 613,48" /><polygon fill="#34F3CD" points="613,48 566,139 610,150" /><polygon fill="#14CD59" points="610,150 567,173 607,210" /><polygon fill="#34F3CD" points="607,210 585,231 610,240" /><polygon fill="#0FDF69" points="610,240 567,265 609,291" /><polygon fill="#5BFE83" points="609,291 577,300 616,304" /><polygon fill="#34F3CD" points="616,304 565,324 614,343" /><polygon fill="url(#gradient_8)" points="614,343 585,372 614,423" /><polygon fill="url(#gradient_1)" points="614,423 570,438 615,480" /><polygon fill="#20D5C2" points="615,480 569,497 612,517" /><polygon fill="url(#gradient_8)" points="612,517 586,531 603,533" /><polygon fill="#14CD59" points="603,533 569,561 612,576" /><polygon fill="url(#gradient_5)" points="649,0 627,28 655,46" /><polygon fill="#1CB79F" points="655,46 613,48 670,114" /><polygon fill="#F0FFFC" points="670,114 610,150 668,194" /><polygon fill="#34F3D5" points="668,194 607,210 656,238" /><polygon fill="#13E07C" points="656,238 610,240 652,263" /><polygon fill="url(#gradient_0)" points="652,263 609,291 650,303" /><polygon fill="#13E07C" points="650,303 616,304 667,325" /><polygon fill="url(#gradient_0)" points="667,325 614,343 646,346" /><polygon fill="url(#gradient_7)" points="646,346 614,423 665,464" /><polygon fill="url(#gradient_6)" points="665,464 615,480 655,482" /><polygon fill="#F0FFFC" points="655,482 612,517 648,528" /><polygon fill="#5BF993" points="648,528 603,533 650,549" /><polygon fill="#11D06C" points="650,549 612,576 655,600" /><polygon fill="url(#gradient_8)" points="627,28 655,46 613,48" /><polygon fill="#10D5C2" points="613,48 670,114 610,150" /><polygon fill="#09DF69" points="610,150 668,194 607,210" /><polygon fill="#F0FFFC" points="607,210 656,238 610,240" /><polygon fill="#11D06C" points="610,240 652,263 609,291" /><polygon fill="#0FDF69" points="609,291 650,303 616,304" /><polygon fill="url(#gradient_9)" points="616,304 667,325 614,343" /><polygon fill="url(#gradient_1)" points="614,343 646,346 614,423" /><polygon fill="url(#gradient_5)" points="614,423 665,464 615,480" /><polygon fill="#1CB79F" points="615,480 655,482 612,517" /><polygon fill="url(#gradient_8)" points="612,517 648,528 603,533" /><polygon fill="#F0FFFC" points="603,533 650,549 612,576" /><polygon fill="url(#gradient_2)" points="571,0 649,0 627,28" /><polygon fill="#10D5C2" points="565,600 655,600 612,576" /><polygon fill="#34F3D5" points="649,0 708,24 655,46" /><polygon fill="#1CB79F" points="655,46 690,106 670,114" /><polygon fill="#0FDF69" points="670,114 692,178 668,194" /><polygon fill="url(#gradient_0)" points="668,194 712,217 656,238" /><polygon fill="#34F3C2" points="656,238 690,245 652,263" /><polygon fill="url(#gradient_0)" points="652,263 688,263 650,303" /><polygon fill="url(#gradient_0)" points="650,303 695,320 667,325" /><polygon fill="url(#gradient_3)" points="667,325 713,338 646,346" /><polygon fill="#1CB79F" points="646,346 695,357 665,464" /><polygon fill="url(#gradient_4)" points="665,464 705,471 655,482" /><polygon fill="url(#gradient_8)" points="655,482 707,501 648,528" /><polygon fill="url(#gradient_3)" points="648,528 708,537 650,549" /><polygon fill="#34F3DD" points="650,549 694,560 655,600" /><polygon fill="#5BF993" points="708,24 655,46 690,106" /><polygon fill="url(#gradient_2)" points="690,106 670,114 692,178" /><polygon fill="#13E07C" points="692,178 668,194 712,217" /><polygon fill="#34F3CD" points="712,217 656,238 690,245" /><polygon fill="url(#gradient_3)" points="690,245 652,263 688,263" /><polygon fill="#20D5C2" points="688,263 650,303 695,320" /><polygon fill="#0FDF69" points="695,320 667,325 713,338" /><polygon fill="#10D5C2" points="713,338 646,346 695,357" /><polygon fill="url(#gradient_0)" points="695,357 665,464 705,471" /><polygon fill="#34F3C2" points="705,471 655,482 707,501" /><polygon fill="url(#gradient_8)" points="707,501 648,528 708,537" /><polygon fill="url(#gradient_8)" points="708,537 650,549 694,560" /><polygon fill="#10D5C2" points="744,0 708,24 732,65" /><polygon fill="url(#gradient_7)" points="732,65 690,106 731,147" /><polygon fill="url(#gradient_4)" points="731,147 692,178 735,199" /><polygon fill="url(#gradient_3)" points="735,199 712,217 756,230" /><polygon fill="url(#gradient_0)" points="756,230 690,245 748,262" /><polygon fill="url(#gradient_4)" points="748,262 688,263 732,269" /><polygon fill="#0FDF69" points="732,269 695,320 736,332" /><polygon fill="url(#gradient_2)" points="736,332 713,338 731,349" /><polygon fill="#1CB79F" points="731,349 695,357 735,433" /><polygon fill="#5BFE83" points="735,433 705,471 738,495" /><polygon fill="#0FDF69" points="738,495 707,501 755,518" /><polygon fill="#34F3D5" points="755,518 708,537 736,542" /><polygon fill="#5BFE83" points="736,542 694,560 734,600" /><polygon fill="url(#gradient_2)" points="708,24 732,65 690,106" /><polygon fill="#10D5C2" points="690,106 731,147 692,178" /><polygon fill="#1FBFAB" points="692,178 735,199 712,217" /><polygon fill="url(#gradient_0)" points="712,217 756,230 690,245" /><polygon fill="#5BF993" points="690,245 748,262 688,263" /><polygon fill="url(#gradient_8)" points="688,263 732,269 695,320" /><polygon fill="url(#gradient_3)" points="695,320 736,332 713,338" /><polygon fill="#14CD59" points="713,338 731,349 695,357" /><polygon fill="url(#gradient_6)" points="695,357 735,433 705,471" /><polygon fill="#5BF993" points="705,471 738,495 707,501" /><polygon fill="url(#gradient_8)" points="707,501 755,518 708,537" /><polygon fill="url(#gradient_7)" points="708,537 736,542 694,560" /><polygon fill="#13E07C" points="649,0 744,0 708,24" /><polygon fill="#1CB79F" points="655,600 734,600 694,560" /><polygon fill="#34F3D5" points="744,0 796,10 732,65" /><polygon fill="url(#gradient_8)" points="732,65 796,133 731,147" /><polygon fill="#5BF993" points="731,147 799,174 735,199" /><polygon fill="#1CB79F" points="735,199 789,218 756,230" /><polygon fill="url(#gradient_2)" points="756,230 792,234 748,262" /><polygon fill="url(#gradient_2)" points="748,262 788,265 732,269" /><polygon fill="#34F3C2" points="732,269 799,281 736,332" /><polygon fill="url(#gradient_1)" points="736,332 789,346 731,349" /><polygon fill="#20D5C2" points="731,349 790,355 735,433" /><polygon fill="url(#gradient_7)" points="735,433 799,461 738,495" /><polygon fill="#34F3CD" points="738,495 788,510 755,518" /><polygon fill="#34F3C2" points="755,518 776,520 736,542" /><polygon fill="#34F3D5" points="736,542 782,592 734,600" /><polygon fill="#09DF69" points="796,10 732,65 796,133" /><polygon fill="#11D06C" points="796,133 731,147 799,174" /><polygon fill="#5BF993" points="799,174 735,199 789,218" /><polygon fill="#34F3D5" points="789,218 756,230 792,234" /><polygon fill="#5BFE83" points="792,234 748,262 788,265" /><polygon fill="#34F3D5" points="788,265 732,269 799,281" /><polygon fill="url(#gradient_0)" points="799,281 736,332 789,346" /><polygon fill="#11D06C" points="789,346 731,349 790,355" /><polygon fill="#34F3CD" points="790,355 735,433 799,461" /><polygon fill="url(#gradient_5)" points="799,461 738,495 788,510" /><polygon fill="#09DF69" points="788,510 755,518 776,520" /><polygon fill="#34F3D5" points="776,520 736,542 782,592" /><polygon fill="url(#gradient_8)" points="829,0 796,10 825,109" /><polygon fill="#09DF69" points="825,109 796,133 839,134" /><polygon fill="#5BFE83" points="839,134 799,174 840,201" /><polygon fill="#11D06C" points="840,201 789,218 840,221" /><polygon fill="url(#gradient_0)" points="840,221 792,234 841,236" /><polygon fill="#5BFE83" points="841,236 788,265 820,280" /><polygon fill="#5BFE83" points="820,280 799,281 816,326" /><polygon fill="url(#gradient_7)" points="816,326 789,346 817,351" /><polygon fill="url(#gradient_4)" points="817,351 790,355 824,393" /><polygon fill="#1CB79F" points="824,393 799,461 837,477" /><polygon fill="url(#gradient_0)" points="837,477 788,510 816,518" /><polygon fill="#34F3CD" points="816,518 776,520 820,544" /><polygon fill="url(#gradient_7)" points="820,544 782,592 819,600" /><polygon fill="url(#gradient_0)" points="796,10 825,109 796,133" /><polygon fill="url(#gradient_1)" points="796,133 839,134 799,174" /><polygon fill="url(#gradient_7)" points="799,174 840,201 789,218" /><polygon fill="url(#gradient_5)" points="789,218 840,221 792,234" /><polygon fill="url(#gradient_9)" points="792,234 841,236 788,265" /><polygon fill="#F0FFFC" points="788,265 820,280 799,281" /><polygon fill="#09DF69" points="799,281 816,326 789,346" /><polygon fill="#34F3D5" points="789,346 817,351 790,355" /><polygon fill="#0FDF69" points="790,355 824,393 799,461" /><polygon fill="url(#gradient_9)" points="799,461 837,477 788,510" /><polygon fill="#20D5C2" points="788,510 816,518 776,520" /><polygon fill="#34F3C2" points="776,520 820,544 782,592" /><polygon fill="url(#gradient_3)" points="744,0 829,0 796,10" /><polygon fill="url(#gradient_9)" points="734,600 819,600 782,592" /><polygon fill="url(#gradient_7)" points="829,0 878,53 825,109" /><polygon fill="#1FBFAB" points="825,109 884,109 839,134" /><polygon fill="#20D5C2" points="839,134 869,156 840,201" /><polygon fill="url(#gradient_0)" points="840,201 871,220 840,221" /><polygon fill="#0FDF69" points="840,221 862,234 841,236" /><polygon fill="#F0FFFC" points="841,236 877,260 820,280" /><polygon fill="#10D5C2" points="820,280 871,318 816,326" /><polygon fill="#14CD59" points="816,326 863,334 817,351" /><polygon fill="#34F3CD" points="817,351 858,363 824,393" /><polygon fill="#0FDF69" points="824,393 869,437 837,477" /><polygon fill="#11D06C" points="837,477 882,504 816,518" /><polygon fill="url(#gradient_1)" points="816,518 867,527 820,544" /><polygon fill="#34F3C2" points="820,544 862,575 819,600" /><polygon fill="url(#gradient_1)" points="878,53 825,109 884,109" /><polygon fill="#11D06C" points="884,109 839,134 869,156" /><polygon fill="url(#gradient_2)" points="869,156 840,201 871,220" /><polygon fill="url(#gradient_7)" points="871,220 840,221 862,234" /><polygon fill="url(#gradient_7)" points="862,234 841,236 877,260" /><polygon fill="#34F3CD" points="877,260 820,280 871,318" /><polygon fill="#13E07C" points="871,318 816,326 863,334" /><polygon fill="#14CD59" points="863,334 817,351 858,363" /><polygon fill="#1FBFAB" points="858,363 824,393 869,437" /><polygon fill="#34F3CD" points="869,437 837,477 882,504" /><polygon fill="#5BF993" points="882,504 816,518 867,527" /><polygon fill="url(#gradient_2)" points="867,527 820,544 862,575" /><polygon fill="url(#gradient_6)" points="912,0 878,53 917,73" /><polygon fill="#14CD59" points="917,73 884,109 922,111" /><polygon fill="#1FBFAB" points="922,111 869,156 904,201" /><polygon fill="#1FBFAB" points="904,201 871,220 911,227" /><polygon fill="url(#gradient_0)" points="911,227 862,234 919,243" /><polygon fill="#09DF69" points="919,243 877,260 921,291" /><polygon fill="#34F3DD" points="921,291 871,318 917,319" /><polygon fill="#34F3CD" points="917,319 863,334 927,345" /><polygon fill="url(#gradient_7)" points="927,345 858,363 923,427" /><polygon fill="#1FBFAB" points="923,427 869,437 920,456" /><polygon fill="#13E07C" points="920,456 882,504 927,507" /><polygon fill="#1FBFAB" points="927,507 867,527 906,530" /><polygon fill="#1CB79F" points="906,530 862,575 911,600" /><polygon fill="#0FDF69" points="878,53 917,73 884,109" /><polygon fill="#34F3D5" points="884,109 922,111 869,156" /><polygon fill="url(#gradient_9)" points="869,156 904,201 871,220" /><polygon fill="url(#gradient_4)" points="871,220 911,227 862,234" /><polygon fill="url(#gradient_0)" points="862,234 919,243 877,260" /><polygon fill="#5BF993" points="877,260 921,291 871,318" /><polygon fill="#20D5C2" points="871,318 917,319 863,334" /><polygon fill="url(#gradient_5)" points="863,334 927,345 858,363" /><polygon fill="url(#gradient_2)" points="858,363 923,427 869,437" /><polygon fill="#13E07C" points="869,437 920,456 882,504" /><polygon fill="url(#gradient_0)" points="882,504 927,507 867,527" /><polygon fill="#13E07C" points="867,527 906,530 862,575" /><polygon fill="#5BF993" points="829,0 912,0 878,53" /><polygon fill="#34F3D5" points="819,600 911,600 862,575" /><polygon fill="#5BF993" points="912,0 962,53 917,73" /><polygon fill="#1FBFAB" points="917,73 968,101 922,111" /><polygon fill="#0FDF69" points="922,111 961,154 904,201" /><polygon fill="#20D5C2" points="904,201 947,216 911,227" /><polygon fill="#34F3DD" points="911,227 947,235 919,243" /><polygon fill="#09DF69" points="919,243 963,263 921,291" /><polygon fill="url(#gradient_0)" points="921,291 945,311 917,319" /><polygon fill="#13E07C" points="917,319 950,339 927,345" /><polygon fill="#34F3C2" points="927,345 948,360 923,427" /><polygon fill="#1CB79F" points="923,427 961,433 920,456" /><polygon fill="#5BF993" points="920,456 965,505 927,507" /><polygon fill="#0FDF69" points="927,507 960,514 906,530" /><polygon fill="url(#gradient_2)" points="906,530 964,573 911,600" /><polygon fill="#13E07C" points="962,53 917,73 968,101" /><polygon fill="url(#gradient_2)" points="968,101 922,111 961,154" /><polygon fill="#10D5C2" points="961,154 904,201 947,216" /><polygon fill="url(#gradient_4)" points="947,216 911,227 947,235" /><polygon fill="url(#gradient_6)" points="947,235 919,243 963,263" /><polygon fill="url(#gradient_6)" points="963,263 921,291 945,311" /><polygon fill="#34F3CD" points="945,311 917,319 950,339" /><polygon fill="url(#gradient_8)" points="950,339 927,345 948,360" /><polygon fill="url(#gradient_7)" points="948,360 923,427 961,433" /><polygon fill="url(#gradient_0)" points="961,433 920,456 965,505" /><polygon fill="#11D06C" points="965,505 927,507 960,514" /><polygon fill="#14CD59" points="960,514 906,530 964,573" /><polygon fill="url(#gradient_7)" points="1000,0 962,53 1000,73" /><polygon fill="#5BFE83" points="1000,73 968,101 1000,139" /><polygon fill="url(#gradient_4)" points="1000,139 961,154 1000,181" /><polygon fill="url(#gradient_4)" points="1000,181 947,216 1000,233" /><polygon fill="#11D06C" points="1000,233 947,235 1000,252" /><polygon fill="#13E07C" points="1000,252 963,263 1000,271" /><polygon fill="#34F3DD" points="1000,271 945,311 1000,331" /><polygon fill="#20D5C2" points="1000,331 950,339 1000,346" /><polygon fill="#1CB79F" points="1000,346 948,360 1000,367" /><polygon fill="#20D5C2" points="1000,367 961,433 1000,452" /><polygon fill="#11D06C" points="1000,452 965,505 1000,506" /><polygon fill="#1CB79F" points="1000,506 960,514 1000,543" /><polygon fill="#34F3DD" points="1000,543 964,573 1000,600" /><polygon fill="#5BFE83" points="962,53 1000,73 968,101" /><polygon fill="#34F3DD" points="968,101 1000,139 961,154" /><polygon fill="url(#gradient_1)" points="961,154 1000,181 947,216" /><polygon fill="url(#gradient_5)" points="947,216 1000,233 947,235" /><polygon fill="#34F3C2" points="947,235 1000,252 963,263" /><polygon fill="#34F3DD" points="963,263 1000,271 945,311" /><polygon fill="#34F3D5" points="945,311 1000,331 950,339" /><polygon fill="url(#gradient_4)" points="950,339 1000,346 948,360" /><polygon fill="#34F3DD" points="948,360 1000,367 961,433" /><polygon fill="#34F3DD" points="961,433 1000,452 965,505" /><polygon fill="url(#gradient_3)" points="965,505 1000,506 960,514" /><polygon fill="#10D5C2" points="960,514 1000,543 964,573" /><polygon fill="#F0FFFC" points="912,0 1000,0 962,53" /><polygon fill="#5BF993" points="911,600 1000,600 964,573" /></svg>