<?xml version="1.0" encoding="utf-8" ?>
<svg baseProfile="full" height="100%" version="1.1" width="100%" xmlns="http://www.w3.org/2000/svg" xmlns:ev="http://www.w3.org/2001/xml-events" xmlns:xlink="http://www.w3.org/1999/xlink"><defs /><defs id="gradients"><linearGradient id="gradient_0" x1="0" x2="1" y1="0" y2="1"><stop offset="0.0" stop-color="#FF8E9C" /><stop offset="1.0" stop-color="#ED3C2D" /></linearGradient><linearGradient id="gradient_1" x1="0" x2="1" y1="0" y2="0"><stop offset="0.0" stop-color="#AD1D1D" /><stop offset="1.0" stop-color="#F84040" /></linearGradient><linearGradient id="gradient_2" x1="0" x2="1" y1="0" y2="0"><stop offset="0.0" stop-color="#FF8E9C" /><stop offset="1.0" stop-color="#ED2C2D" /></linearGradient><linearGradient id="gradient_3" x1="0" x2="0" y1="0" y2="1"><stop offset="0.0" stop-color="#ED3C2D" /><stop offset="1.0" stop-color="#FF8E9C" /></linearGradient><linearGradient id="gradient_4" x1="0" x2="1" y1="0" y2="1"><stop offset="0.0" stop-color="#FA5A66" /><stop offset="1.0" stop-color="#F83030" /></linearGradient><linearGradient id="gradient_5" x1="0" x2="1" y1="0" y2="1"><stop offset="0.0" stop-color="#F84040" /><stop offset="1.0" stop-color="#FF9EA6" /></linearGradient><linearGradient id="gradient_6" x1="0" x2="1" y1="0" y2="0"><stop offset="0.0" stop-color="#ED3C2D" /><stop offset="1.0" stop-color="#ED2C2D" /></linearGradient><linearGradient id="gradient_7" x1="0" x2="1" y1="0" y2="1"><stop offset="0.0" stop-color="#FA5A66" /><stop offset="1.0" stop-color="#AD1F14" /></linearGradient><linearGradient id="gradient_8" x1="0" x2="1" y1="0" y2="0"><stop offset="0.0" stop-color="#FE8585" /><stop offset="1.0" stop-color="#F83030" /></linearGradient><linearGradient id="gradient_9" x1="0" x2="1" y1="0" y2="0"><stop offset="0.0" stop-color="#FE8585" /><stop offset="1.0" stop-color="#FA5A66" /></linearGradient></defs><polygon fill="#F84040" points="0,0 42,15 0,46" /><polygon fill="url(#gradient_3)" points="0,46 33,63 0,92" /><polygon fill="#AD1F14" points="0,92 32,97 0,138" /><polygon fill="#AD1D1D" points="0,138 27,168 0,184" /><polygon fill="#F84040" points="0,184 40,188 0,230" /><polygon fill="#FEF5F8" points="0,230 30,235 0,276" /><polygon fill="#FF8E9C" points="0,276 24,311 0,323" /><polygon fill="#F84040" points="0,323 24,337 0,369" /><polygon fill="url(#gradient_3)" points="0,369 42,414 0,415" /><polygon fill="#FA5A66" points="0,415 18,444 0,461" /><polygon fill="#FF8E9C" points="0,461 34,473 0,507" /><polygon fill="url(#gradient_3)" points="0,507 24,541 0,553" /><polygon fill="url(#gradient_0)" points="0,553 33,574 0,600" /><polygon fill="#ED2C2D" points="42,15 0,46 33,63" /><polygon fill="#AD1D1D" points="33,63 0,92 32,97" /><polygon fill="url(#gradient_9)" points="32,97 0,138 27,168" /><polygon fill="url(#gradient_4)" points="27,168 0,184 40,188" /><polygon fill="#FEF5F8" points="40,188 0,230 30,235" /><polygon fill="url(#gradient_1)" points="30,235 0,276 24,311" /><polygon fill="#F84040" points="24,311 0,323 24,337" /><polygon fill="url(#gradient_8)" points="24,337 0,369 42,414" /><polygon fill="#FE8575" points="42,414 0,415 18,444" /><polygon fill="#FE8575" points="18,444 0,461 34,473" /><polygon fill="#FA5A66" points="34,473 0,507 24,541" /><polygon fill="url(#gradient_5)" points="24,541 0,553 33,574" /><polygon fill="#FE8585" points="72,0 42,15 61,30" /><polygon fill="#ED3C2D" points="61,30 33,63 69,85" /><polygon fill="#AD1D1D" points="69,85 32,97 63,108" /><polygon fill="url(#gradient_6)" points="63,108 27,168 83,184" /><polygon fill="url(#gradient_2)" points="83,184 40,188 71,221" /><polygon fill="url(#gradient_4)" points="71,221 30,235 66,299" /><polygon fill="#FE8585" points="66,299 24,311 69,317" /><polygon fill="url(#gradient_8)" points="69,317 24,337 60,375" /><polygon fill="url(#gradient_8)" points="60,375 42,414 66,435" /><polygon fill="url(#gradient_4)" points="66,435 18,444 81,471" /><polygon fill="#FF8E9C" points="81,471 34,473 83,517" /><polygon fill="#AD1F14" points="83,517 24,541 74,549" /><polygon fill="url(#gradient_8)" points="74,549 33,574 70,600" /><polygon fill="#F84040" points="42,15 61,30 33,63" /><polygon fill="url(#gradient_1)" points="33,63 69,85 32,97" /><polygon fill="#FE8575" points="32,97 63,108 27,168" /><polygon fill="url(#gradient_9)" points="27,168 83,184 40,188" /><polygon fill="url(#gradient_1)" points="40,188 71,221 30,235" /><polygon fill="url(#gradient_1)" points="30,235 66,299 24,311" /><polygon fill="#FA5A66" points="24,311 69,317 24,337" /><polygon fill="url(#gradient_9)" points="24,337 60,375 42,414" /><polygon fill="#FF8E9C" points="42,414 66,435 18,444" /><polygon fill="url(#gradient_8)" points="18,444 81,471 34,473" /><polygon fill="#FA5A66" points="34,473 83,517 24,541" /><polygon fill="#ED3C2D" points="24,541 74,549 33,574" /><polygon fill="#FA5A66" points="0,0 72,0 42,15" /><polygon fill="#AD1D1D" points="0,600 70,600 33,574" /><polygon fill="#F83030" points="72,0 121,12 61,30" /><polygon fill="url(#gradient_0)" points="61,30 117,51 69,85" /><polygon fill="url(#gradient_5)" points="69,85 107,106 63,108" /><polygon fill="url(#gradient_5)" points="63,108 115,124 83,184" /><polygon fill="#FE8575" points="83,184 123,198 71,221" /><polygon fill="#AD1F14" points="71,221 123,235 66,299" /><polygon fill="url(#gradient_1)" points="66,299 103,312 69,317" /><polygon fill="#AD1F14" points="69,317 106,351 60,375" /><polygon fill="#FE8585" points="60,375 105,376 66,435" /><polygon fill="url(#gradient_2)" points="66,435 112,457 81,471" /><polygon fill="#FE8575" points="81,471 110,488 83,517" /><polygon fill="#FA5A66" points="83,517 110,517 74,549" /><polygon fill="url(#gradient_1)" points="74,549 108,581 70,600" /><polygon fill="#FA5A66" points="121,12 61,30 117,51" /><polygon fill="#ED3C2D" points="117,51 69,85 107,106" /><polygon fill="url(#gradient_7)" points="107,106 63,108 115,124" /><polygon fill="#AD1D1D" points="115,124 83,184 123,198" /><polygon fill="#ED2C2D" points="123,198 71,221 123,235" /><polygon fill="url(#gradient_8)" points="123,235 66,299 103,312" /><polygon fill="url(#gradient_0)" points="103,312 69,317 106,351" /><polygon fill="#F84040" points="106,351 60,375 105,376" /><polygon fill="#ED2C2D" points="105,376 66,435 112,457" /><polygon fill="url(#gradient_7)" points="112,457 81,471 110,488" /><polygon fill="#FE8585" points="110,488 83,517 110,517" /><polygon fill="#FEF5F8" points="110,517 74,549 108,581" /><polygon fill="#FE8575" points="148,0 121,12 143,39" /><polygon fill="#AD1F14" points="143,39 117,51 154,101" /><polygon fill="#FA5A66" points="154,101 107,106 151,106" /><polygon fill="url(#gradient_7)" points="151,106 115,124 155,173" /><polygon fill="url(#gradient_3)" points="155,173 123,198 149,225" /><polygon fill="url(#gradient_9)" points="149,225 123,235 149,273" /><polygon fill="#FF9EA6" points="149,273 103,312 149,332" /><polygon fill="#AD1F14" points="149,332 106,351 154,363" /><polygon fill="url(#gradient_3)" points="154,363 105,376 150,396" /><polygon fill="#FE8575" points="150,396 112,457 161,486" /><polygon fill="#F83030" points="161,486 110,488 147,498" /><polygon fill="#AD1D1D" points="147,498 110,517 143,574" /><polygon fill="url(#gradient_1)" points="143,574 108,581 149,600" /><polygon fill="url(#gradient_3)" points="121,12 143,39 117,51" /><polygon fill="#FA5A66" points="117,51 154,101 107,106" /><polygon fill="url(#gradient_9)" points="107,106 151,106 115,124" /><polygon fill="#FA5A66" points="115,124 155,173 123,198" /><polygon fill="url(#gradient_3)" points="123,198 149,225 123,235" /><polygon fill="url(#gradient_4)" points="123,235 149,273 103,312" /><polygon fill="#FA5A66" points="103,312 149,332 106,351" /><polygon fill="url(#gradient_5)" points="106,351 154,363 105,376" /><polygon fill="#ED2C2D" points="105,376 150,396 112,457" /><polygon fill="url(#gradient_0)" points="112,457 161,486 110,488" /><polygon fill="#FE8585" points="110,488 147,498 110,517" /><polygon fill="#ED2C2D" points="110,517 143,574 108,581" /><polygon fill="#F84040" points="72,0 148,0 121,12" /><polygon fill="#FE8585" points="70,600 149,600 108,581" /><polygon fill="url(#gradient_1)" points="148,0 189,7 143,39" /><polygon fill="url(#gradient_7)" points="143,39 203,68 154,101" /><polygon fill="#FEF5F8" points="154,101 185,104 151,106" /><polygon fill="#FA5A66" points="151,106 185,127 155,173" /><polygon fill="#FA5A66" points="155,173 182,185 149,225" /><polygon fill="url(#gradient_1)" points="149,225 185,230 149,273" /><polygon fill="#F84040" points="149,273 187,299 149,332" /><polygon fill="#ED2C2D" points="149,332 189,345 154,363" /><polygon fill="#AD1F14" points="154,363 202,390 150,396" /><polygon fill="#FA5A66" points="150,396 180,474 161,486" /><polygon fill="url(#gradient_0)" points="161,486 194,497 147,498" /><polygon fill="#F84040" points="147,498 189,531 143,574" /><polygon fill="#AD1D1D" points="143,574 182,595 149,600" /><polygon fill="url(#gradient_6)" points="189,7 143,39 203,68" /><polygon fill="url(#gradient_6)" points="203,68 154,101 185,104" /><polygon fill="url(#gradient_2)" points="185,104 151,106 185,127" /><polygon fill="#AD1D1D" points="185,127 155,173 182,185" /><polygon fill="#ED3C2D" points="182,185 149,225 185,230" /><polygon fill="#FA5A66" points="185,230 149,273 187,299" /><polygon fill="#F83030" points="187,299 149,332 189,345" /><polygon fill="#ED2C2D" points="189,345 154,363 202,390" /><polygon fill="#FA5A66" points="202,390 150,396 180,474" /><polygon fill="url(#gradient_8)" points="180,474 161,486 194,497" /><polygon fill="#FEF5F8" points="194,497 147,498 189,531" /><polygon fill="url(#gradient_8)" points="189,531 143,574 182,595" /><polygon fill="#FF8E9C" points="245,0 189,7 222,41" /><polygon fill="url(#gradient_6)" points="222,41 203,68 229,79" /><polygon fill="url(#gradient_8)" points="229,79 185,104 226,114" /><polygon fill="url(#gradient_1)" points="226,114 185,127 231,150" /><polygon fill="url(#gradient_3)" points="231,150 182,185 223,209" /><polygon fill="url(#gradient_9)" points="223,209 185,230 246,251" /><polygon fill="#ED3C2D" points="246,251 187,299 242,329" /><polygon fill="#FE8575" points="242,329 189,345 231,365" /><polygon fill="url(#gradient_9)" points="231,365 202,390 231,459" /><polygon fill="#FA5A66" points="231,459 180,474 224,484" /><polygon fill="#ED2C2D" points="224,484 194,497 243,515" /><polygon fill="url(#gradient_5)" points="243,515 189,531 240,563" /><polygon fill="#FF8E9C" points="240,563 182,595 235,600" /><polygon fill="url(#gradient_6)" points="189,7 222,41 203,68" /><polygon fill="url(#gradient_4)" points="203,68 229,79 185,104" /><polygon fill="url(#gradient_6)" points="185,104 226,114 185,127" /><polygon fill="#F84040" points="185,127 231,150 182,185" /><polygon fill="url(#gradient_7)" points="182,185 223,209 185,230" /><polygon fill="url(#gradient_2)" points="185,230 246,251 187,299" /><polygon fill="url(#gradient_3)" points="187,299 242,329 189,345" /><polygon fill="#AD1F14" points="189,345 231,365 202,390" /><polygon fill="url(#gradient_4)" points="202,390 231,459 180,474" /><polygon fill="#F83030" points="180,474 224,484 194,497" /><polygon fill="#FE8575" points="194,497 243,515 189,531" /><polygon fill="#ED3C2D" points="189,531 240,563 182,595" /><polygon fill="url(#gradient_2)" points="148,0 245,0 189,7" /><polygon fill="#F83030" points="149,600 235,600 182,595" /><polygon fill="#AD1F14" points="245,0 270,19 222,41" /><polygon fill="#F83030" points="222,41 278,54 229,79" /><polygon fill="#AD1F14" points="229,79 276,95 226,114" /><polygon fill="url(#gradient_4)" points="226,114 283,123 231,150" /><polygon fill="#FF9EA6" points="231,150 271,163 223,209" /><polygon fill="#F84040" points="223,209 282,235 246,251" /><polygon fill="url(#gradient_8)" points="246,251 289,276 242,329" /><polygon fill="url(#gradient_7)" points="242,329 269,331 231,365" /><polygon fill="#F83030" points="231,365 266,432 231,459" /><polygon fill="#ED3C2D" points="231,459 289,466 224,484" /><polygon fill="url(#gradient_3)" points="224,484 281,504 243,515" /><polygon fill="#FEF5F8" points="243,515 268,523 240,563" /><polygon fill="#AD1F14" points="240,563 281,578 235,600" /><polygon fill="url(#gradient_4)" points="270,19 222,41 278,54" /><polygon fill="#AD1D1D" points="278,54 229,79 276,95" /><polygon fill="#F83030" points="276,95 226,114 283,123" /><polygon fill="#AD1D1D" points="283,123 231,150 271,163" /><polygon fill="#FF9EA6" points="271,163 223,209 282,235" /><polygon fill="url(#gradient_8)" points="282,235 246,251 289,276" /><polygon fill="#F84040" points="289,276 242,329 269,331" /><polygon fill="url(#gradient_2)" points="269,331 231,365 266,432" /><polygon fill="#AD1D1D" points="266,432 231,459 289,466" /><polygon fill="#FF9EA6" points="289,466 224,484 281,504" /><polygon fill="#AD1D1D" points="281,504 243,515 268,523" /><polygon fill="#FF8E9C" points="268,523 240,563 281,578" /><polygon fill="#FE8575" points="307,0 270,19 329,29" /><polygon fill="url(#gradient_7)" points="329,29 278,54 330,78" /><polygon fill="#FA5A66" points="330,78 276,95 331,98" /><polygon fill="#AD1D1D" points="331,98 283,123 311,143" /><polygon fill="#F84040" points="311,143 271,163 310,200" /><polygon fill="#FF8E9C" points="310,200 282,235 307,238" /><polygon fill="#F84040" points="307,238 289,276 307,298" /><polygon fill="url(#gradient_2)" points="307,298 269,331 332,405" /><polygon fill="#F83030" points="332,405 266,432 321,445" /><polygon fill="url(#gradient_8)" points="321,445 289,466 310,473" /><polygon fill="url(#gradient_8)" points="310,473 281,504 323,518" /><polygon fill="#AD1F14" points="323,518 268,523 311,545" /><polygon fill="#FE8585" points="311,545 281,578 311,600" /><polygon fill="#F84040" points="270,19 329,29 278,54" /><polygon fill="#F83030" points="278,54 330,78 276,95" /><polygon fill="#F84040" points="276,95 331,98 283,123" /><polygon fill="url(#gradient_9)" points="283,123 311,143 271,163" /><polygon fill="url(#gradient_0)" points="271,163 310,200 282,235" /><polygon fill="url(#gradient_0)" points="282,235 307,238 289,276" /><polygon fill="#FA5A66" points="289,276 307,298 269,331" /><polygon fill="#FA5A66" points="269,331 332,405 266,432" /><polygon fill="url(#gradient_7)" points="266,432 321,445 289,466" /><polygon fill="#FF9EA6" points="289,466 310,473 281,504" /><polygon fill="#FEF5F8" points="281,504 323,518 268,523" /><polygon fill="#ED2C2D" points="268,523 311,545 281,578" /><polygon fill="url(#gradient_0)" points="245,0 307,0 270,19" /><polygon fill="#ED3C2D" points="235,600 311,600 281,578" /><polygon fill="#FA5A66" points="307,0 371,23 329,29" /><polygon fill="url(#gradient_3)" points="329,29 365,53 330,78" /><polygon fill="url(#gradient_6)" points="330,78 370,97 331,98" /><polygon fill="#FF9EA6" points="331,98 350,131 311,143" /><polygon fill="#FEF5F8" points="311,143 354,165 310,200" /><polygon fill="#ED2C2D" points="310,200 352,235 307,238" /><polygon fill="#AD1D1D" points="307,238 375,262 307,298" /><polygon fill="#FA5A66" points="307,298 353,357 332,405" /><polygon fill="url(#gradient_9)" points="332,405 362,443 321,445" /><polygon fill="#ED3C2D" points="321,445 366,456 310,473" /><polygon fill="#FF9EA6" points="310,473 356,474 323,518" /><polygon fill="#ED2C2D" points="323,518 365,525 311,545" /><polygon fill="url(#gradient_8)" points="311,545 356,581 311,600" /><polygon fill="#FA5A66" points="371,23 329,29 365,53" /><polygon fill="url(#gradient_1)" points="365,53 330,78 370,97" /><polygon fill="#FF9EA6" points="370,97 331,98 350,131" /><polygon fill="#FF9EA6" points="350,131 311,143 354,165" /><polygon fill="url(#gradient_8)" points="354,165 310,200 352,235" /><polygon fill="url(#gradient_6)" points="352,235 307,238 375,262" /><polygon fill="url(#gradient_3)" points="375,262 307,298 353,357" /><polygon fill="#FF8E9C" points="353,357 332,405 362,443" /><polygon fill="#AD1F14" points="362,443 321,445 366,456" /><polygon fill="url(#gradient_5)" points="366,456 310,473 356,474" /><polygon fill="#F84040" points="356,474 323,518 365,525" /><polygon fill="url(#gradient_2)" points="365,525 311,545 356,581" /><polygon fill="#FEF5F8" points="412,0 371,23 406,28" /><polygon fill="#FA5A66" points="406,28 365,53 417,79" /><polygon fill="#FE8575" points="417,79 370,97 412,105" /><polygon fill="#FE8585" points="412,105 350,131 399,136" /><polygon fill="#F84040" points="399,136 354,165 394,192" /><polygon fill="url(#gradient_2)" points="394,192 352,235 407,246" /><polygon fill="#FF8E9C" points="407,246 375,262 417,262" /><polygon fill="#FEF5F8" points="417,262 353,357 394,370" /><polygon fill="url(#gradient_9)" points="394,370 362,443 414,447" /><polygon fill="url(#gradient_9)" points="414,447 366,456 401,461" /><polygon fill="#FA5A66" points="401,461 356,474 415,504" /><polygon fill="#F83030" points="415,504 365,525 392,542" /><polygon fill="url(#gradient_0)" points="392,542 356,581 417,600" /><polygon fill="url(#gradient_5)" points="371,23 406,28 365,53" /><polygon fill="#ED2C2D" points="365,53 417,79 370,97" /><polygon fill="#FEF5F8" points="370,97 412,105 350,131" /><polygon fill="url(#gradient_2)" points="350,131 399,136 354,165" /><polygon fill="url(#gradient_0)" points="354,165 394,192 352,235" /><polygon fill="url(#gradient_7)" points="352,235 407,246 375,262" /><polygon fill="#F83030" points="375,262 417,262 353,357" /><polygon fill="#F83030" points="353,357 394,370 362,443" /><polygon fill="#F84040" points="362,443 414,447 366,456" /><polygon fill="#AD1F14" points="366,456 401,461 356,474" /><polygon fill="url(#gradient_8)" points="356,474 415,504 365,525" /><polygon fill="#FA5A66" points="365,525 392,542 356,581" /><polygon fill="url(#gradient_2)" points="307,0 412,0 371,23" /><polygon fill="url(#gradient_5)" points="311,600 417,600 356,581" /><polygon fill="#F84040" points="412,0 441,12 406,28" /><polygon fill="#F83030" points="406,28 452,53 417,79" /><polygon fill="#FE8585" points="417,79 447,98 412,105" /><polygon fill="#FF9EA6" points="412,105 453,125 399,136" /><polygon fill="url(#gradient_9)" points="399,136 453,143 394,192" /><polygon fill="#F83030" points="394,192 453,205 407,246" /><polygon fill="#F83030" points="407,246 452,253 417,262" /><polygon fill="#ED3C2D" points="417,262 447,274 394,370" /><polygon fill="#F83030" points="394,370 439,431 414,447" /><polygon fill="#AD1D1D" points="414,447 452,456 401,461" /><polygon fill="url(#gradient_4)" points="401,461 451,472 415,504" /><polygon fill="url(#gradient_1)" points="415,504 447,541 392,542" /><polygon fill="url(#gradient_6)" points="392,542 440,551 417,600" /><polygon fill="url(#gradient_6)" points="441,12 406,28 452,53" /><polygon fill="url(#gradient_1)" points="452,53 417,79 447,98" /><polygon fill="url(#gradient_3)" points="447,98 412,105 453,125" /><polygon fill="#FA5A66" points="453,125 399,136 453,143" /><polygon fill="url(#gradient_6)" points="453,143 394,192 453,205" /><polygon fill="#ED3C2D" points="453,205 407,246 452,253" /><polygon fill="url(#gradient_5)" points="452,253 417,262 447,274" /><polygon fill="#F84040" points="447,274 394,370 439,431" /><polygon fill="url(#gradient_0)" points="439,431 414,447 452,456" /><polygon fill="#FF9EA6" points="452,456 401,461 451,472" /><polygon fill="#FEF5F8" points="451,472 415,504 447,541" /><polygon fill="#AD1D1D" points="447,541 392,542 440,551" /><polygon fill="url(#gradient_4)" points="493,0 441,12 486,40" /><polygon fill="#AD1F14" points="486,40 452,53 477,71" /><polygon fill="#FA5A66" points="477,71 447,98 492,116" /><polygon fill="#F83030" points="492,116 453,125 471,142" /><polygon fill="url(#gradient_3)" points="471,142 453,143 494,166" /><polygon fill="#FA5A66" points="494,166 453,205 478,217" /><polygon fill="#FA5A66" points="478,217 452,253 473,271" /><polygon fill="url(#gradient_8)" points="473,271 447,274 485,275" /><polygon fill="#FA5A66" points="485,275 439,431 477,445" /><polygon fill="#AD1D1D" points="477,445 452,456 477,463" /><polygon fill="#AD1F14" points="477,463 451,472 494,478" /><polygon fill="#F84040" points="494,478 447,541 480,548" /><polygon fill="url(#gradient_8)" points="480,548 440,551 475,600" /><polygon fill="url(#gradient_2)" points="441,12 486,40 452,53" /><polygon fill="#FEF5F8" points="452,53 477,71 447,98" /><polygon fill="#FA5A66" points="447,98 492,116 453,125" /><polygon fill="#FA5A66" points="453,125 471,142 453,143" /><polygon fill="#ED3C2D" points="453,143 494,166 453,205" /><polygon fill="#ED2C2D" points="453,205 478,217 452,253" /><polygon fill="#AD1F14" points="452,253 473,271 447,274" /><polygon fill="#FA5A66" points="447,274 485,275 439,431" /><polygon fill="#AD1F14" points="439,431 477,445 452,456" /><polygon fill="url(#gradient_1)" points="452,456 477,463 451,472" /><polygon fill="url(#gradient_3)" points="451,472 494,478 447,541" /><polygon fill="#FE8575" points="447,541 480,548 440,551" /><polygon fill="url(#gradient_3)" points="412,0 493,0 441,12" /><polygon fill="url(#gradient_4)" points="417,600 475,600 440,551" /><polygon fill="#F84040" points="493,0 527,37 486,40" /><polygon fill="#FEF5F8" points="486,40 518,47 477,71" /><polygon fill="#FF9EA6" points="477,71 518,90 492,116" /><polygon fill="url(#gradient_3)" points="492,116 520,128 471,142" /><polygon fill="#ED3C2D" points="471,142 518,158 494,166" /><polygon fill="url(#gradient_0)" points="494,166 517,201 478,217" /><polygon fill="#FF8E9C" points="478,217 516,259 473,271" /><polygon fill="#FE8585" points="473,271 518,273 485,275" /><polygon fill="#ED3C2D" points="485,275 528,310 477,445" /><polygon fill="url(#gradient_8)" points="477,445 520,448 477,463" /><polygon fill="#FF9EA6" points="477,463 519,469 494,478" /><polygon fill="url(#gradient_6)" points="494,478 514,536 480,548" /><polygon fill="url(#gradient_0)" points="480,548 526,585 475,600" /><polygon fill="url(#gradient_8)" points="527,37 486,40 518,47" /><polygon fill="#AD1D1D" points="518,47 477,71 518,90" /><polygon fill="url(#gradient_9)" points="518,90 492,116 520,128" /><polygon fill="#FF8E9C" points="520,128 471,142 518,158" /><polygon fill="url(#gradient_3)" points="518,158 494,166 517,201" /><polygon fill="#AD1D1D" points="517,201 478,217 516,259" /><polygon fill="#FE8585" points="516,259 473,271 518,273" /><polygon fill="#FE8575" points="518,273 485,275 528,310" /><polygon fill="#FA5A66" points="528,310 477,445 520,448" /><polygon fill="#ED3C2D" points="520,448 477,463 519,469" /><polygon fill="url(#gradient_6)" points="519,469 494,478 514,536" /><polygon fill="#FF9EA6" points="514,536 480,548 526,585" /><polygon fill="url(#gradient_9)" points="570,0 527,37 546,39" /><polygon fill="#AD1F14" points="546,39 518,47 563,87" /><polygon fill="#FE8585" points="563,87 518,90 563,113" /><polygon fill="#AD1D1D" points="563,113 520,128 564,138" /><polygon fill="#FF8E9C" points="564,138 518,158 557,193" /><polygon fill="url(#gradient_1)" points="557,193 517,201 563,217" /><polygon fill="#ED3C2D" points="563,217 516,259 546,269" /><polygon fill="url(#gradient_8)" points="546,269 518,273 567,276" /><polygon fill="#AD1F14" points="567,276 528,310 570,375" /><polygon fill="url(#gradient_4)" points="570,375 520,448 567,467" /><polygon fill="url(#gradient_4)" points="567,467 519,469 559,487" /><polygon fill="#FE8585" points="559,487 514,536 559,558" /><polygon fill="#F84040" points="559,558 526,585 553,600" /><polygon fill="#FE8585" points="527,37 546,39 518,47" /><polygon fill="#ED3C2D" points="518,47 563,87 518,90" /><polygon fill="url(#gradient_0)" points="518,90 563,113 520,128" /><polygon fill="url(#gradient_2)" points="520,128 564,138 518,158" /><polygon fill="#FA5A66" points="518,158 557,193 517,201" /><polygon fill="url(#gradient_9)" points="517,201 563,217 516,259" /><polygon fill="#F83030" points="516,259 546,269 518,273" /><polygon fill="#AD1D1D" points="518,273 567,276 528,310" /><polygon fill="url(#gradient_0)" points="528,310 570,375 520,448" /><polygon fill="url(#gradient_9)" points="520,448 567,467 519,469" /><polygon fill="#FF9EA6" points="519,469 559,487 514,536" /><polygon fill="url(#gradient_7)" points="514,536 559,558 526,585" /><polygon fill="#F83030" points="493,0 570,0 527,37" /><polygon fill="url(#gradient_4)" points="475,600 553,600 526,585" /><polygon fill="url(#gradient_1)" points="570,0 606,20 546,39" /><polygon fill="#FF8E9C" points="546,39 592,77 563,87" /><polygon fill="#FE8575" points="563,87 606,104 563,113" /><polygon fill="#FE8585" points="563,113 594,131 564,138" /><polygon fill="#FE8575" points="564,138 597,144 557,193" /><polygon fill="#FF8E9C" points="557,193 608,208 563,217" /><polygon fill="#FF9EA6" points="563,217 594,226 546,269" /><polygon fill="url(#gradient_6)" points="546,269 607,272 567,276" /><polygon fill="#AD1F14" points="567,276 601,349 570,375" /><polygon fill="url(#gradient_6)" points="570,375 594,422 567,467" /><polygon fill="url(#gradient_2)" points="567,467 601,474 559,487" /><polygon fill="#FA5A66" points="559,487 592,555 559,558" /><polygon fill="#AD1D1D" points="559,558 596,582 553,600" /><polygon fill="#FEF5F8" points="606,20 546,39 592,77" /><polygon fill="url(#gradient_8)" points="592,77 563,87 606,104" /><polygon fill="#FA5A66" points="606,104 563,113 594,131" /><polygon fill="#F83030" points="594,131 564,138 597,144" /><polygon fill="url(#gradient_9)" points="597,144 557,193 608,208" /><polygon fill="#FE8575" points="608,208 563,217 594,226" /><polygon fill="url(#gradient_4)" points="594,226 546,269 607,272" /><polygon fill="url(#gradient_8)" points="607,272 567,276 601,349" /><polygon fill="#F83030" points="601,349 570,375 594,422" /><polygon fill="#AD1D1D" points="594,422 567,467 601,474" /><polygon fill="#ED3C2D" points="601,474 559,487 592,555" /><polygon fill="#FE8575" points="592,555 559,558 596,582" /><polygon fill="#FEF5F8" points="650,0 606,20 644,76" /><polygon fill="#FEF5F8" points="644,76 592,77 640,81" /><polygon fill="#FA5A66" points="640,81 606,104 632,129" /><polygon fill="#ED3C2D" points="632,129 594,131 637,137" /><polygon fill="#FE8585" points="637,137 597,144 643,154" /><polygon fill="url(#gradient_6)" points="643,154 608,208 636,219" /><polygon fill="url(#gradient_2)" points="636,219 594,226 630,266" /><polygon fill="url(#gradient_0)" points="630,266 607,272 628,327" /><polygon fill="#FE8585" points="628,327 601,349 638,405" /><polygon fill="url(#gradient_8)" points="638,405 594,422 639,439" /><polygon fill="#FE8585" points="639,439 601,474 645,504" /><polygon fill="#ED3C2D" points="645,504 592,555 626,579" /><polygon fill="#AD1F14" points="626,579 596,582 635,600" /><polygon fill="url(#gradient_5)" points="606,20 644,76 592,77" /><polygon fill="url(#gradient_9)" points="592,77 640,81 606,104" /><polygon fill="#FF8E9C" points="606,104 632,129 594,131" /><polygon fill="url(#gradient_5)" points="594,131 637,137 597,144" /><polygon fill="#AD1F14" points="597,144 643,154 608,208" /><polygon fill="#ED3C2D" points="608,208 636,219 594,226" /><polygon fill="#FE8585" points="594,226 630,266 607,272" /><polygon fill="#FA5A66" points="607,272 628,327 601,349" /><polygon fill="url(#gradient_5)" points="601,349 638,405 594,422" /><polygon fill="url(#gradient_8)" points="594,422 639,439 601,474" /><polygon fill="#FE8575" points="601,474 645,504 592,555" /><polygon fill="#AD1D1D" points="592,555 626,579 596,582" /><polygon fill="#FF8E9C" points="570,0 650,0 606,20" /><polygon fill="#FF9EA6" points="553,600 635,600 596,582" /><polygon fill="url(#gradient_7)" points="650,0 671,26 644,76" /><polygon fill="url(#gradient_7)" points="644,76 679,80 640,81" /><polygon fill="url(#gradient_2)" points="640,81 686,86 632,129" /><polygon fill="#ED3C2D" points="632,129 670,129 637,137" /><polygon fill="#AD1F14" points="637,137 674,147 643,154" /><polygon fill="#F84040" points="643,154 670,196 636,219" /><polygon fill="#FE8585" points="636,219 687,246 630,266" /><polygon fill="#FF9EA6" points="630,266 685,289 628,327" /><polygon fill="url(#gradient_6)" points="628,327 683,388 638,405" /><polygon fill="url(#gradient_0)" points="638,405 691,410 639,439" /><polygon fill="#FA5A66" points="639,439 687,476 645,504" /><polygon fill="url(#gradient_3)" points="645,504 685,571 626,579" /><polygon fill="#AD1F14" points="626,579 667,582 635,600" /><polygon fill="url(#gradient_0)" points="671,26 644,76 679,80" /><polygon fill="#ED3C2D" points="679,80 640,81 686,86" /><polygon fill="#FA5A66" points="686,86 632,129 670,129" /><polygon fill="url(#gradient_1)" points="670,129 637,137 674,147" /><polygon fill="url(#gradient_5)" points="674,147 643,154 670,196" /><polygon fill="#FA5A66" points="670,196 636,219 687,246" /><polygon fill="#F83030" points="687,246 630,266 685,289" /><polygon fill="#FE8585" points="685,289 628,327 683,388" /><polygon fill="#FF8E9C" points="683,388 638,405 691,410" /><polygon fill="#ED2C2D" points="691,410 639,439 687,476" /><polygon fill="url(#gradient_9)" points="687,476 645,504 685,571" /><polygon fill="url(#gradient_7)" points="685,571 626,579 667,582" /><polygon fill="#FF8E9C" points="722,0 671,26 709,65" /><polygon fill="url(#gradient_2)" points="709,65 679,80 714,85" /><polygon fill="#AD1F14" points="714,85 686,86 708,109" /><polygon fill="url(#gradient_3)" points="708,109 670,129 733,144" /><polygon fill="#FA5A66" points="733,144 674,147 726,169" /><polygon fill="#FE8575" points="726,169 670,196 725,239" /><polygon fill="#FE8585" points="725,239 687,246 722,257" /><polygon fill="#FF8E9C" points="722,257 685,289 731,385" /><polygon fill="#F84040" points="731,385 683,388 732,402" /><polygon fill="#FEF5F8" points="732,402 691,410 722,450" /><polygon fill="url(#gradient_3)" points="722,450 687,476 723,548" /><polygon fill="url(#gradient_8)" points="723,548 685,571 723,579" /><polygon fill="#FE8585" points="723,579 667,582 718,600" /><polygon fill="#FE8585" points="671,26 709,65 679,80" /><polygon fill="#F83030" points="679,80 714,85 686,86" /><polygon fill="url(#gradient_0)" points="686,86 708,109 670,129" /><polygon fill="#FE8575" points="670,129 733,144 674,147" /><polygon fill="#AD1F14" points="674,147 726,169 670,196" /><polygon fill="#FF9EA6" points="670,196 725,239 687,246" /><polygon fill="#FE8575" points="687,246 722,257 685,289" /><polygon fill="#FE8585" points="685,289 731,385 683,388" /><polygon fill="url(#gradient_3)" points="683,388 732,402 691,410" /><polygon fill="#F83030" points="691,410 722,450 687,476" /><polygon fill="#FA5A66" points="687,476 723,548 685,571" /><polygon fill="#FA5A66" points="685,571 723,579 667,582" /><polygon fill="#FEF5F8" points="650,0 722,0 671,26" /><polygon fill="#FA5A66" points="635,600 718,600 667,582" /><polygon fill="#FE8585" points="722,0 759,46 709,65" /><polygon fill="url(#gradient_2)" points="709,65 761,66 714,85" /><polygon fill="url(#gradient_7)" points="714,85 762,97 708,109" /><polygon fill="url(#gradient_8)" points="708,109 750,137 733,144" /><polygon fill="url(#gradient_5)" points="733,144 762,164 726,169" /><polygon fill="#FE8585" points="726,169 767,223 725,239" /><polygon fill="#FA5A66" points="725,239 774,252 722,257" /><polygon fill="url(#gradient_8)" points="722,257 750,345 731,385" /><polygon fill="#FA5A66" points="731,385 753,389 732,402" /><polygon fill="#FA5A66" points="732,402 758,437 722,450" /><polygon fill="#FEF5F8" points="722,450 775,451 723,548" /><polygon fill="#FA5A66" points="723,548 756,561 723,579" /><polygon fill="#FA5A66" points="723,579 764,585 718,600" /><polygon fill="url(#gradient_8)" points="759,46 709,65 761,66" /><polygon fill="url(#gradient_5)" points="761,66 714,85 762,97" /><polygon fill="#ED3C2D" points="762,97 708,109 750,137" /><polygon fill="url(#gradient_9)" points="750,137 733,144 762,164" /><polygon fill="#AD1F14" points="762,164 726,169 767,223" /><polygon fill="#FE8575" points="767,223 725,239 774,252" /><polygon fill="#FEF5F8" points="774,252 722,257 750,345" /><polygon fill="#FE8575" points="750,345 731,385 753,389" /><polygon fill="url(#gradient_5)" points="753,389 732,402 758,437" /><polygon fill="url(#gradient_4)" points="758,437 722,450 775,451" /><polygon fill="#F84040" points="775,451 723,548 756,561" /><polygon fill="url(#gradient_3)" points="756,561 723,579 764,585" /><polygon fill="url(#gradient_8)" points="799,0 759,46 806,61" /><polygon fill="url(#gradient_5)" points="806,61 761,66 795,68" /><polygon fill="#F84040" points="795,68 762,97 801,130" /><polygon fill="#FA5A66" points="801,130 750,137 801,151" /><polygon fill="url(#gradient_7)" points="801,151 762,164 814,202" /><polygon fill="url(#gradient_8)" points="814,202 767,223 817,241" /><polygon fill="#FF8E9C" points="817,241 774,252 810,343" /><polygon fill="url(#gradient_0)" points="810,343 750,345 801,350" /><polygon fill="#FE8575" points="801,350 753,389 798,423" /><polygon fill="#FE8585" points="798,423 758,437 813,445" /><polygon fill="#FE8585" points="813,445 775,451 806,541" /><polygon fill="url(#gradient_8)" points="806,541 756,561 804,569" /><polygon fill="#FF9EA6" points="804,569 764,585 813,600" /><polygon fill="#FEF5F8" points="759,46 806,61 761,66" /><polygon fill="url(#gradient_2)" points="761,66 795,68 762,97" /><polygon fill="#FA5A66" points="762,97 801,130 750,137" /><polygon fill="#AD1F14" points="750,137 801,151 762,164" /><polygon fill="url(#gradient_2)" points="762,164 814,202 767,223" /><polygon fill="#FA5A66" points="767,223 817,241 774,252" /><polygon fill="#F84040" points="774,252 810,343 750,345" /><polygon fill="#F83030" points="750,345 801,350 753,389" /><polygon fill="#FA5A66" points="753,389 798,423 758,437" /><polygon fill="#FE8575" points="758,437 813,445 775,451" /><polygon fill="url(#gradient_0)" points="775,451 806,541 756,561" /><polygon fill="#FF9EA6" points="756,561 804,569 764,585" /><polygon fill="#ED2C2D" points="722,0 799,0 759,46" /><polygon fill="#FEF5F8" points="718,600 813,600 764,585" /><polygon fill="url(#gradient_5)" points="799,0 837,34 806,61" /><polygon fill="url(#gradient_8)" points="806,61 857,65 795,68" /><polygon fill="url(#gradient_6)" points="795,68 848,100 801,130" /><polygon fill="#FA5A66" points="801,130 850,130 801,151" /><polygon fill="#FE8575" points="801,151 842,163 814,202" /><polygon fill="url(#gradient_7)" points="814,202 838,210 817,241" /><polygon fill="#FE8585" points="817,241 845,294 810,343" /><polygon fill="url(#gradient_5)" points="810,343 859,345 801,350" /><polygon fill="url(#gradient_9)" points="801,350 852,373 798,423" /><polygon fill="url(#gradient_7)" points="798,423 838,442 813,445" /><polygon fill="#FEF5F8" points="813,445 841,445 806,541" /><polygon fill="url(#gradient_7)" points="806,541 840,561 804,569" /><polygon fill="url(#gradient_0)" points="804,569 844,597 813,600" /><polygon fill="url(#gradient_2)" points="837,34 806,61 857,65" /><polygon fill="#ED2C2D" points="857,65 795,68 848,100" /><polygon fill="#AD1D1D" points="848,100 801,130 850,130" /><polygon fill="#FF9EA6" points="850,130 801,151 842,163" /><polygon fill="url(#gradient_0)" points="842,163 814,202 838,210" /><polygon fill="url(#gradient_5)" points="838,210 817,241 845,294" /><polygon fill="#AD1F14" points="845,294 810,343 859,345" /><polygon fill="#ED3C2D" points="859,345 801,350 852,373" /><polygon fill="url(#gradient_3)" points="852,373 798,423 838,442" /><polygon fill="url(#gradient_4)" points="838,442 813,445 841,445" /><polygon fill="url(#gradient_3)" points="841,445 806,541 840,561" /><polygon fill="url(#gradient_5)" points="840,561 804,569 844,597" /><polygon fill="url(#gradient_5)" points="895,0 837,34 894,36" /><polygon fill="#AD1D1D" points="894,36 857,65 877,72" /><polygon fill="url(#gradient_7)" points="877,72 848,100 886,126" /><polygon fill="#FE8575" points="886,126 850,130 883,143" /><polygon fill="url(#gradient_3)" points="883,143 842,163 881,190" /><polygon fill="url(#gradient_9)" points="881,190 838,210 886,285" /><polygon fill="url(#gradient_1)" points="886,285 845,294 888,329" /><polygon fill="url(#gradient_8)" points="888,329 859,345 880,352" /><polygon fill="#FA5A66" points="880,352 852,373 898,422" /><polygon fill="#FEF5F8" points="898,422 838,442 883,442" /><polygon fill="url(#gradient_1)" points="883,442 841,445 898,452" /><polygon fill="#ED2C2D" points="898,452 840,561 878,572" /><polygon fill="#FF9EA6" points="878,572 844,597 877,600" /><polygon fill="#F84040" points="837,34 894,36 857,65" /><polygon fill="#AD1D1D" points="857,65 877,72 848,100" /><polygon fill="url(#gradient_6)" points="848,100 886,126 850,130" /><polygon fill="#F83030" points="850,130 883,143 842,163" /><polygon fill="url(#gradient_4)" points="842,163 881,190 838,210" /><polygon fill="url(#gradient_5)" points="838,210 886,285 845,294" /><polygon fill="#FEF5F8" points="845,294 888,329 859,345" /><polygon fill="url(#gradient_5)" points="859,345 880,352 852,373" /><polygon fill="#ED2C2D" points="852,373 898,422 838,442" /><polygon fill="url(#gradient_7)" points="838,442 883,442 841,445" /><polygon fill="#FA5A66" points="841,445 898,452 840,561" /><polygon fill="url(#gradient_8)" points="840,561 878,572 844,597" /><polygon fill="#FEF5F8" points="799,0 895,0 837,34" /><polygon fill="url(#gradient_7)" points="813,600 877,600 844,597" /><polygon fill="#AD1D1D" points="895,0 926,28 894,36" /><polygon fill="#FA5A66" points="894,36 927,44 877,72" /><polygon fill="#ED2C2D" points="877,72 918,82 886,126" /><polygon fill="url(#gradient_1)" points="886,126 917,136 883,143" /><polygon fill="#F83030" points="883,143 940,164 881,190" /><polygon fill="#FF9EA6" points="881,190 928,284 886,285" /><polygon fill="#AD1F14" points="886,285 932,296 888,329" /><polygon fill="#FF9EA6" points="888,329 928,332 880,352" /><polygon fill="url(#gradient_3)" points="880,352 938,374 898,422" /><polygon fill="url(#gradient_4)" points="898,422 924,436 883,442" /><polygon fill="url(#gradient_7)" points="883,442 924,448 898,452" /><polygon fill="url(#gradient_6)" points="898,452 916,556 878,572" /><polygon fill="url(#gradient_5)" points="878,572 924,594 877,600" /><polygon fill="url(#gradient_0)" points="926,28 894,36 927,44" /><polygon fill="url(#gradient_6)" points="927,44 877,72 918,82" /><polygon fill="url(#gradient_7)" points="918,82 886,126 917,136" /><polygon fill="url(#gradient_6)" points="917,136 883,143 940,164" /><polygon fill="#AD1F14" points="940,164 881,190 928,284" /><polygon fill="url(#gradient_5)" points="928,284 886,285 932,296" /><polygon fill="#FF8E9C" points="932,296 888,329 928,332" /><polygon fill="url(#gradient_3)" points="928,332 880,352 938,374" /><polygon fill="url(#gradient_0)" points="938,374 898,422 924,436" /><polygon fill="url(#gradient_3)" points="924,436 883,442 924,448" /><polygon fill="#FEF5F8" points="924,448 898,452 916,556" /><polygon fill="#AD1D1D" points="916,556 878,572 924,594" /><polygon fill="#ED2C2D" points="982,0 926,28 966,43" /><polygon fill="#FE8575" points="966,43 927,44 972,62" /><polygon fill="#FF9EA6" points="972,62 918,82 981,106" /><polygon fill="url(#gradient_3)" points="981,106 917,136 963,138" /><polygon fill="#FE8575" points="963,138 940,164 963,174" /><polygon fill="url(#gradient_9)" points="963,174 928,284 970,292" /><polygon fill="url(#gradient_7)" points="970,292 932,296 982,301" /><polygon fill="url(#gradient_2)" points="982,301 928,332 971,351" /><polygon fill="url(#gradient_4)" points="971,351 938,374 967,382" /><polygon fill="#F83030" points="967,382 924,436 960,441" /><polygon fill="url(#gradient_9)" points="960,441 924,448 958,518" /><polygon fill="url(#gradient_4)" points="958,518 916,556 971,580" /><polygon fill="#F83030" points="971,580 924,594 969,600" /><polygon fill="url(#gradient_7)" points="926,28 966,43 927,44" /><polygon fill="#FE8585" points="927,44 972,62 918,82" /><polygon fill="url(#gradient_0)" points="918,82 981,106 917,136" /><polygon fill="url(#gradient_0)" points="917,136 963,138 940,164" /><polygon fill="#FA5A66" points="940,164 963,174 928,284" /><polygon fill="url(#gradient_5)" points="928,284 970,292 932,296" /><polygon fill="url(#gradient_0)" points="932,296 982,301 928,332" /><polygon fill="#F83030" points="928,332 971,351 938,374" /><polygon fill="#F84040" points="938,374 967,382 924,436" /><polygon fill="url(#gradient_0)" points="924,436 960,441 924,448" /><polygon fill="#ED3C2D" points="924,448 958,518 916,556" /><polygon fill="#FA5A66" points="916,556 971,580 924,594" /><polygon fill="#FF9EA6" points="895,0 982,0 926,28" /><polygon fill="url(#gradient_3)" points="877,600 969,600 924,594" /><polygon fill="#FEF5F8" points="982,0 1000,14 966,43" /><polygon fill="#FE8575" points="966,43 1000,56 972,62" /><polygon fill="#AD1D1D" points="972,62 1000,100 981,106" /><polygon fill="#FA5A66" points="981,106 1000,113 963,138" /><polygon fill="#AD1F14" points="963,138 1000,151 963,174" /><polygon fill="#FEF5F8" points="963,174 1000,255 970,292" /><polygon fill="#F84040" points="970,292 1000,299 982,301" /><polygon fill="#FA5A66" points="982,301 1000,315 971,351" /><polygon fill="#AD1F14" points="971,351 1000,361 967,382" /><polygon fill="url(#gradient_8)" points="967,382 1000,403 960,441" /><polygon fill="url(#gradient_0)" points="960,441 1000,504 958,518" /><polygon fill="#F83030" points="958,518 1000,568 971,580" /><polygon fill="#AD1F14" points="971,580 1000,587 969,600" /><polygon fill="#FF8E9C" points="1000,14 966,43 1000,56" /><polygon fill="url(#gradient_6)" points="1000,56 972,62 1000,100" /><polygon fill="#FEF5F8" points="1000,100 981,106 1000,113" /><polygon fill="#FA5A66" points="1000,113 963,138 1000,151" /><polygon fill="#FA5A66" points="1000,151 963,174 1000,255" /><polygon fill="#AD1F14" points="1000,255 970,292 1000,299" /><polygon fill="#FF9EA6" points="1000,299 982,301 1000,315" /><polygon fill="url(#gradient_8)" points="1000,315 971,351 1000,361" /><polygon fill="url(#gradient_2)" points="1000,361 967,382 1000,403" /><polygon fill="#FE8575" points="1000,403 960,441 1000,504" /><polygon fill="url(#gradient_8)" points="1000,504 958,518 1000,568" /><polygon fill="#FA5A66" points="1000,568 971,580 1000,587" /><polygon fill="url(#gradient_1)" points="982,0 1000,0 1000,14" /><polygon fill="#AD1F14" points="969,600 1000,600 1000,587" /></svg>